  0
SECTION
  2
HEADER
  9
$ACADVER
  1
AC1009
  9
$INSBASE
 10
0.0
 20
0.0
 30
0.0
  9
$EXTMIN
 10
0.0
 20
0.0
 30
0.0
  9
$EXTMAX
 10
85.000000000000014
 20
190.0
 30
0.0
  9
$LIMMIN
 10
0.0
 20
0.0
  9
$LIMMAX
 10
420.0
 20
297.0
  9
$ORTHOMODE
 70
     0
  9
$REGENMODE
 70
     1
  9
$FILLMODE
 70
     1
  9
$QTEXTMODE
 70
     0
  9
$MIRRTEXT
 70
     0
  9
$DRAGMODE
 70
     2
  9
$LTSCALE
 40
1.0
  9
$OSMODE
 70
    47
  9
$ATTMODE
 70
     1
  9
$TEXTSIZE
 40
2.5
  9
$TRACEWID
 40
1.0
  9
$TEXTSTYLE
  7
STANDARD
  9
$CLAYER
  8
ANNO
  9
$CELTYPE
  6
BYLAYER
  9
$CECOLOR
 62
   256
  9
$DIMSCALE
 40
1.0
  9
$DIMASZ
 40
2.5
  9
$DIMEXO
 40
0.625
  9
$DIMDLI
 40
3.75
  9
$DIMRND
 40
0.0
  9
$DIMDLE
 40
0.0
  9
$DIMEXE
 40
1.25
  9
$DIMTP
 40
0.0
  9
$DIMTM
 40
0.0
  9
$DIMTXT
 40
2.5
  9
$DIMCEN
 40
2.5
  9
$DIMTSZ
 40
0.0
  9
$DIMTOL
 70
     0
  9
$DIMLIM
 70
     0
  9
$DIMTIH
 70
     0
  9
$DIMTOH
 70
     0
  9
$DIMSE1
 70
     0
  9
$DIMSE2
 70
     0
  9
$DIMTAD
 70
     1
  9
$DIMZIN
 70
     8
  9
$DIMBLK
  1

  9
$DIMASO
 70
     1
  9
$DIMSHO
 70
     1
  9
$DIMPOST
  1

  9
$DIMAPOST
  1

  9
$DIMALT
 70
     0
  9
$DIMALTD
 70
     3
  9
$DIMALTF
 40
0.03937007874016
  9
$DIMLFAC
 40
1.0
  9
$DIMTOFL
 70
     1
  9
$DIMTVP
 40
0.0
  9
$DIMTIX
 70
     0
  9
$DIMSOXD
 70
     0
  9
$DIMSAH
 70
     0
  9
$DIMBLK1
  1

  9
$DIMBLK2
  1

  9
$DIMSTYLE
  2
ISO-25
  9
$DIMCLRD
 70
     0
  9
$DIMCLRE
 70
     0
  9
$DIMCLRT
 70
     0
  9
$DIMTFAC
 40
1.0
  9
$DIMGAP
 40
0.625
  9
$LUNITS
 70
     2
  9
$LUPREC
 70
     4
  9
$SKETCHINC
 40
1.0
  9
$FILLETRAD
 40
0.0
  9
$AUNITS
 70
     0
  9
$AUPREC
 70
     0
  9
$MENU
  1
.
  9
$ELEVATION
 40
0.0
  9
$PELEVATION
 40
0.0
  9
$THICKNESS
 40
0.0
  9
$LIMCHECK
 70
     0
  9
$BLIPMODE
 70
     0
  9
$CHAMFERA
 40
0.0
  9
$CHAMFERB
 40
0.0
  9
$SKPOLY
 70
     0
  9
$TDCREATE
 40
2456737.195536748
  9
$TDUPDATE
 40
2456880.6500374191
  9
$TDINDWG
 40
0.1182473032
  9
$TDUSRTIMER
 40
0.1182472569
  9
$USRTIMER
 70
     1
  9
$ANGBASE
 50
0.0
  9
$ANGDIR
 70
     0
  9
$PDMODE
 70
     0
  9
$PDSIZE
 40
0.0
  9
$PLINEWID
 40
0.0
  9
$COORDS
 70
     1
  9
$SPLFRAME
 70
     0
  9
$SPLINETYPE
 70
     6
  9
$SPLINESEGS
 70
     8
  9
$ATTDIA
 70
     1
  9
$ATTREQ
 70
     1
  9
$HANDLING
 70
     1
  9
$HANDSEED
  5
418
  9
$SURFTAB1
 70
     6
  9
$SURFTAB2
 70
     6
  9
$SURFTYPE
 70
     6
  9
$SURFU
 70
     6
  9
$SURFV
 70
     6
  9
$UCSNAME
  2

  9
$UCSORG
 10
0.0
 20
0.0
 30
0.0
  9
$UCSXDIR
 10
1.0
 20
0.0
 30
0.0
  9
$UCSYDIR
 10
0.0
 20
1.0
 30
0.0
  9
$PUCSNAME
  2

  9
$PUCSORG
 10
0.0
 20
0.0
 30
0.0
  9
$PUCSXDIR
 10
1.0
 20
0.0
 30
0.0
  9
$PUCSYDIR
 10
0.0
 20
1.0
 30
0.0
  9
$USERI1
 70
     0
  9
$USERI2
 70
     0
  9
$USERI3
 70
     0
  9
$USERI4
 70
     0
  9
$USERI5
 70
     0
  9
$USERR1
 40
0.0
  9
$USERR2
 40
0.0
  9
$USERR3
 40
0.0
  9
$USERR4
 40
0.0
  9
$USERR5
 40
0.0
  9
$WORLDVIEW
 70
     1
  9
$SHADEDGE
 70
     3
  9
$SHADEDIF
 70
    70
  9
$TILEMODE
 70
     1
  9
$MAXACTVP
 70
    64
  9
$PLIMCHECK
 70
     0
  9
$PEXTMIN
 10
25.699999999999989
 20
19.5
 30
0.0
  9
$PEXTMAX
 10
231.30000000000001
 20
175.5
 30
0.0
  9
$PLIMMIN
 10
-20.0
 20
-7.5
  9
$PLIMMAX
 10
277.0
 20
202.5
  9
$UNITMODE
 70
     0
  9
$VISRETAIN
 70
     1
  9
$PLINEGEN
 70
     0
  9
$PSLTSCALE
 70
     1
  0
ENDSEC
  0
SECTION
  2
TABLES
  0
TABLE
  2
VPORT
 70
     1
  0
VPORT
  2
*ACTIVE
 70
     0
 10
0.0
 20
0.0
 11
1.0
 21
1.0
 12
49.917486390575441
 22
97.726665070231945
 13
0.0
 23
0.0
 14
10.0
 24
10.0
 15
10.0
 25
10.0
 16
0.0
 26
0.0
 36
1.0
 17
0.0
 27
0.0
 37
0.0
 40
298.72298080953408
 41
1.5348258706467659
 42
50.0
 43
0.0
 44
0.0
 50
0.0
 51
0.0
 71
     0
 72
  1000
 73
     1
 74
     3
 75
     0
 76
     1
 77
     0
 78
     0
  0
ENDTAB
  0
TABLE
  2
LTYPE
 70
     1
  0
LTYPE
  2
CONTINUOUS
 70
     0
  3
Solid line
 72
    65
 73
     0
 40
0.0
  0
ENDTAB
  0
TABLE
  2
LAYER
 70
     7
  0
LAYER
  2
0
 70
     0
 62
     7
  6
CONTINUOUS
  0
LAYER
  2
HOJO_SEN
 70
     0
 62
   -11
  6
CONTINUOUS
  0
LAYER
  2
PARTS
 70
     0
 62
   131
  6
CONTINUOUS
  0
LAYER
  2
HOLE
 70
     0
 62
     7
  6
CONTINUOUS
  0
LAYER
  2
GUIDE
 70
     0
 62
   -11
  6
CONTINUOUS
  0
LAYER
  2
ANNO
 70
     0
 62
     7
  6
CONTINUOUS
  0
LAYER
  2
DEFPOINTS
 70
     0
 62
     7
  6
CONTINUOUS
  0
ENDTAB
  0
TABLE
  2
STYLE
 70
     2
  0
STYLE
  2
STANDARD
 70
     0
 40
0.0
 41
1.0
 50
0.0
 71
     0
 42
2.5
  3
txt
  4

  0
STYLE
  2
ANNOTATIVE
 70
     0
 40
0.0
 41
1.0
 50
0.0
 71
     0
 42
2.5
  3
txt
  4

  0
ENDTAB
  0
TABLE
  2
VIEW
 70
     0
  0
ENDTAB
  0
TABLE
  2
UCS
 70
     0
  0
ENDTAB
  0
TABLE
  2
APPID
 70
    12
  0
APPID
  2
ACAD
 70
     0
  0
APPID
  2
ACAD_PSEXT
 70
     0
  0
APPID
  2
ACADANNOPO
 70
     0
  0
APPID
  2
ACADANNOTATIVE
 70
     0
  0
APPID
  2
ACAD_DSTYLE_DIMJAG
 70
     0
  0
APPID
  2
ACAD_DSTYLE_DIMTALN
 70
     0
  0
APPID
  2
ACAD_MLEADERVER
 70
     0
  0
APPID
  2
ACAD_NAV_VCDISPLAY
 70
     0
  0
APPID
  2
ACAD_EXEMPT_FROM_CAD_STANDARDS
 70
     0
  0
APPID
  2
ACAECLAYERSTANDARD
 70
     0
  0
APPID
  2
ACCMTRANSPARENCY
 70
     0
  0
APPID
  2
ACAD_DSTYLE_DIMRADIAL_EXTENSION
 70
     0
  0
ENDTAB
  0
TABLE
  2
DIMSTYLE
 70
     3
  0
DIMSTYLE
  2
STANDARD
 70
     0
  3

  4

  5

  6

  7

 40
1.0
 41
0.18
 42
0.0625
 43
0.38
 44
0.18
 45
0.0
 46
0.0
 47
0.0
 48
0.0
140
0.18
141
0.09
142
0.0
143
25.399999999999999
144
1.0
145
0.0
146
1.0
147
0.09
 71
     0
 72
     0
 73
     1
 74
     1
 75
     0
 76
     0
 77
     0
 78
     0
170
     0
171
     2
172
     0
173
     0
174
     0
175
     0
176
     0
177
     0
178
     0
  0
DIMSTYLE
  2
ANNOTATIVE
 70
     0
  3

  4

  5

  6

  7

 40
0.0
 41
2.5
 42
0.625
 43
3.75
 44
1.25
 45
0.0
 46
0.0
 47
0.0
 48
0.0
140
2.5
141
2.5
142
0.0
143
0.03937007874016
144
1.0
145
0.0
146
1.0
147
0.625
 71
     0
 72
     0
 73
     0
 74
     0
 75
     0
 76
     0
 77
     1
 78
     8
170
     0
171
     3
172
     1
173
     0
174
     0
175
     0
176
     0
177
     0
178
     0
  0
DIMSTYLE
  2
ISO-25
 70
     0
  3

  4

  5

  6

  7

 40
1.0
 41
2.5
 42
0.625
 43
3.75
 44
1.25
 45
0.0
 46
0.0
 47
0.0
 48
0.0
140
2.5
141
2.5
142
0.0
143
0.03937007874016
144
1.0
145
0.0
146
1.0
147
0.625
 71
     0
 72
     0
 73
     0
 74
     0
 75
     0
 76
     0
 77
     1
 78
     8
170
     0
171
     3
172
     1
173
     0
174
     0
175
     0
176
     0
177
     0
178
     0
  0
ENDTAB
  0
ENDSEC
  0
SECTION
  2
BLOCKS
  0
BLOCK
  8
0
  2
$MODEL_SPACE
 70
     0
 10
0.0
 20
0.0
 30
0.0
  3
$MODEL_SPACE
  1

  0
ENDBLK
  5
21
  8
0
  0
BLOCK
 67
     1
  8
0
  2
$PAPER_SPACE
 70
     0
 10
0.0
 20
0.0
 30
0.0
  3
$PAPER_SPACE
  1

  0
ENDBLK
  5
D5
 67
     1
  8
0
  0
BLOCK
  8
0
  2
*D1
 70
     1
 10
0.0
 20
0.0
 30
0.0
  3
*D1
  1

  0
LINE
  5
302
  8
ANNO
 62
     0
 10
11.78468884034841
 20
163.02199359375231
 30
0.0
 11
18.104901768340451
 21
168.11026755693851
 31
0.0
  0
LINE
  5
303
  8
ANNO
 62
     0
 10
29.00999215372158
 20
176.88973244306149
 30
0.0
 11
30.95732972253964
 21
178.4574940298692
 31
0.0
  0
INSERT
  5
304
  8
ANNO
  2
*U5
 10
0.0
 20
0.0
 30
0.0
  0
LINE
  5
305
  8
ANNO
 62
     0
 10
27.06265458490353
 20
175.32197085625381
 30
0.0
 11
20.052239337158511
 21
169.67802914374619
 31
0.0
  0
SOLID
  5
306
  8
ANNO
 62
     0
 10
28.748698555920299
 20
177.21428870453121
 30
0.0
 11
29.271285751522871
 21
176.56517618159191
 31
0.0
 12
27.06265458490353
 22
175.32197085625381
 32
0.0
 13
27.06265458490353
 23
175.32197085625381
 33
0.0
  0
SOLID
  5
307
  8
ANNO
 62
     0
 10
17.84360817053917
 20
168.4348238184082
 30
0.0
 11
18.366195366141739
 21
167.78571129546879
 31
0.0
 12
20.052239337158511
 22
169.67802914374619
 32
0.0
 13
20.052239337158511
 23
169.67802914374619
 33
0.0
  0
POINT
  5
308
  8
DEFPOINTS
 62
     0
 10
20.052239337158511
 20
169.67802914374619
 30
0.0
  0
POINT
  5
309
  8
DEFPOINTS
 62
     0
 10
27.06265458490353
 20
175.32197085625381
 30
0.0
  0
ENDBLK
  5
2F8
  8
0
  0
BLOCK
  8
0
  2
*D2
 70
     1
 10
0.0
 20
0.0
 30
0.0
  3
*D2
  1

  0
LINE
  5
318
  8
ANNO
 62
     0
 10
50.690117231123402
 20
160.82570237465279
 30
0.0
 11
58.156829808495658
 21
168.9325747586351
 31
0.0
  0
LINE
  5
319
  8
ANNO
 62
     0
 10
64.728276269442489
 20
176.06742524136479
 30
0.0
 11
66.421948037727759
 21
177.90630423175909
 31
0.0
  0
INSERT
  5
31A
  8
ANNO
  2
*U6
 10
0.0
 20
0.0
 30
0.0
  0
LINE
  5
31B
  8
ANNO
 62
     0
 10
63.034604501157212
 20
174.2285462509706
 30
0.0
 11
59.850501576780928
 21
170.7714537490294
 31
0.0
  0
SOLID
  5
31C
  8
ANNO
 62
     0
 10
64.4217964377101
 20
176.34970386941239
 30
0.0
 11
65.034756101174864
 21
175.78514661331729
 31
0.0
 12
63.034604501157212
 22
174.2285462509706
 32
0.0
 13
63.034604501157212
 23
174.2285462509706
 33
0.0
  0
SOLID
  5
31D
  8
ANNO
 62
     0
 10
57.850349976763283
 20
169.21485338668271
 30
0.0
 11
58.46330964022804
 21
168.65029613058761
 31
0.0
 12
59.850501576780928
 22
170.7714537490294
 32
0.0
 13
59.850501576780928
 23
170.7714537490294
 33
0.0
  0
POINT
  5
31E
  8
DEFPOINTS
 62
     0
 10
59.850501576780928
 20
170.7714537490294
 30
0.0
  0
POINT
  5
31F
  8
DEFPOINTS
 62
     0
 10
63.034604501157212
 20
174.2285462509706
 30
0.0
  0
ENDBLK
  5
30E
  8
0
  0
BLOCK
  8
0
  2
*D3
 70
     1
 10
0.0
 20
0.0
 30
0.0
  3
*D3
  1

  0
LINE
  5
34E
  8
ANNO
 62
     0
 10
10.825724155713241
 20
112.93630712229159
 30
0.0
 11
19.299001129966062
 21
120.3207325779774
 31
0.0
  0
LINE
  5
34F
  8
ANNO
 62
     0
 10
28.345613833294991
 20
128.2048177243953
 30
0.0
 11
30.230324813155178
 21
129.84733546323241
 31
0.0
  0
INSERT
  5
350
  8
ANNO
  2
*U7
 10
0.0
 20
0.0
 30
0.0
  0
LINE
  5
351
  8
ANNO
 62
     0
 10
26.460902853434799
 20
126.5622999855583
 30
0.0
 11
21.183712109826249
 21
121.9632503168144
 31
0.0
  0
SOLID
  5
352
  8
ANNO
 62
     0
 10
28.07186087682215
 20
128.5189362210387
 30
0.0
 11
28.619366789767849
 21
127.89069922775199
 31
0.0
 12
26.460902853434799
 22
126.5622999855583
 32
0.0
 13
26.460902853434799
 23
126.5622999855583
 33
0.0
  0
SOLID
  5
353
  8
ANNO
 62
     0
 10
19.025248173493221
 20
120.6348510746207
 30
0.0
 11
19.572754086438909
 21
120.00661408133401
 31
0.0
 12
21.183712109826249
 22
121.9632503168144
 32
0.0
 13
21.183712109826249
 23
121.9632503168144
 33
0.0
  0
POINT
  5
354
  8
DEFPOINTS
 62
     0
 10
21.183712109826249
 20
121.9632503168144
 30
0.0
  0
POINT
  5
355
  8
DEFPOINTS
 62
     0
 10
26.460902853434799
 20
126.5622999855583
 30
0.0
  0
ENDBLK
  5
344
  8
0
  0
BLOCK
  8
0
  2
*D4
 70
     1
 10
0.0
 20
0.0
 30
0.0
  3
*D4
  1

  0
LINE
  5
364
  8
ANNO
 62
     0
 10
33.954652945588528
 20
114.29734378763951
 30
0.0
 11
39.245264021364719
 21
120.4671600878038
 31
0.0
  0
LINE
  5
365
  8
ANNO
 62
     0
 10
45.754735978635303
 20
128.05839021456899
 30
0.0
 11
47.382103967952951
 21
129.9561977462603
 31
0.0
  0
INSERT
  5
366
  8
ANNO
  2
*U8
 10
0.0
 20
0.0
 30
0.0
  0
LINE
  5
367
  8
ANNO
 62
     0
 10
44.127367989317669
 20
126.1605826828777
 30
0.0
 11
40.872632010682359
 21
122.364967619495
 31
0.0
  0
SOLID
  5
368
  8
ANNO
 62
     0
 10
45.438434723353417
 20
128.3296182127886
 30
0.0
 11
46.071037233917188
 21
127.7871622163494
 31
0.0
 12
44.127367989317669
 22
126.1605826828777
 32
0.0
 13
44.127367989317669
 23
126.1605826828777
 33
0.0
  0
SOLID
  5
369
  8
ANNO
 62
     0
 10
38.92896276608284
 20
120.73838808602341
 30
0.0
 11
39.561565276646597
 21
120.1959320895841
 31
0.0
 12
40.872632010682359
 22
122.364967619495
 32
0.0
 13
40.872632010682359
 23
122.364967619495
 33
0.0
  0
POINT
  5
36A
  8
DEFPOINTS
 62
     0
 10
40.872632010682359
 20
122.364967619495
 30
0.0
  0
POINT
  5
36B
  8
DEFPOINTS
 62
     0
 10
44.127367989317669
 20
126.1605826828777
 30
0.0
  0
ENDBLK
  5
35A
  8
0
  0
BLOCK
  8
0
  2
*U5
 70
     1
 10
0.0
 20
0.0
 30
0.0
  3
*U5
  1

  0
TEXT
  5
409
  8
ANNO
 62
     0
 10
11.70623566543247
 20
163.890378686107
 30
0.0
 40
2.5
  1
\U+00D89
 50
38.836829315378118
  0
ENDBLK
  5
40B
  8
0
  0
BLOCK
  8
0
  2
*U6
 70
     1
 10
0.0
 20
0.0
 30
0.0
  3
*U6
  1

  0
TEXT
  5
40D
  8
ANNO
 62
     0
 10
50.194163540205949
 20
161.93976629665551
 30
0.0
 40
2.5
  1
\U+00D84,7
 50
47.353845828573007
  0
ENDBLK
  5
40F
  8
0
  0
BLOCK
  8
0
  2
*U7
 70
     1
 10
0.0
 20
0.0
 30
0.0
  3
*U7
  1

  0
TEXT
  5
411
  8
ANNO
 62
     0
 10
10.71346239917516
 20
113.8009717204436
 30
0.0
 40
2.5
  1
\U+00D87
 50
41.072014346521733
  0
ENDBLK
  5
413
  8
0
  0
BLOCK
  8
0
  2
*U8
 70
     1
 10
0.0
 20
0.0
 30
0.0
  3
*U8
  1

  0
TEXT
  5
415
  8
ANNO
 62
     0
 10
33.718528607414513
 20
115.13668452071531
 30
0.0
 40
2.5
  1
\U+00D85
 50
49.386945504734392
  0
ENDBLK
  5
417
  8
0
  0
ENDSEC
  0
SECTION
  2
ENTITIES
  0
LINE
  5
23D
  8
0
 10
0.0
 20
0.0
 30
0.0
 11
85.0
 21
0.0
 31
0.0
  0
LINE
  5
245
  8
0
 10
0.0
 20
0.0
 30
0.0
 11
0.0000000000000021
 21
35.0
 31
0.0
  0
LINE
  5
246
  8
0
 10
0.0000000000000021
 20
35.0
 30
0.0
 11
85.0
 21
35.0
 31
0.0
  0
LINE
  5
247
  8
0
 10
85.0
 20
35.0
 30
0.0
 11
85.0
 21
0.0
 31
0.0
  0
LINE
  5
248
  8
0
 10
0.0000000000000021
 20
35.0
 30
0.0
 11
0.0000000000000095
 21
155.0
 31
0.0
  0
LINE
  5
249
  8
0
 10
0.0000000000000095
 20
155.0
 30
0.0
 11
85.000000000000014
 21
155.0
 31
0.0
  0
LINE
  5
24A
  8
0
 10
85.000000000000014
 20
155.0
 30
0.0
 11
85.0
 21
35.0
 31
0.0
  0
LINE
  5
24B
  8
0
 10
0.0000000000000095
 20
155.0
 30
0.0
 11
0.0000000000000116
 21
190.0
 31
0.0
  0
LINE
  5
24C
  8
0
 10
0.0000000000000116
 20
190.0
 30
0.0
 11
85.000000000000014
 21
190.0
 31
0.0
  0
LINE
  5
24D
  8
0
 10
85.000000000000014
 20
190.0
 30
0.0
 11
85.000000000000014
 21
155.0
 31
0.0
  0
LINE
  5
251
  8
HOJO_SEN
 10
0.0000000000000095
 20
155.0
 30
0.0
 11
85.000000000000014
 21
190.0
 31
0.0
  0
LINE
  5
252
  8
HOJO_SEN
 10
0.0000000000000116
 20
190.0
 30
0.0
 11
85.000000000000014
 21
155.0
 31
0.0
  0
LINE
  5
253
  8
HOJO_SEN
 10
0.0000000000000095
 20
155.0
 30
0.0
 11
85.0
 21
35.0
 31
0.0
  0
LINE
  5
254
  8
HOJO_SEN
 10
85.000000000000014
 20
155.0
 30
0.0
 11
0.0000000000000021
 21
35.0
 31
0.0
  0
LINE
  5
255
  8
HOJO_SEN
 10
0.0000000000000021
 20
35.0
 30
0.0
 11
85.0
 21
0.0
 31
0.0
  0
LINE
  5
256
  8
HOJO_SEN
 10
0.0
 20
0.0
 30
0.0
 11
85.0
 21
35.0
 31
0.0
  0
LINE
  5
257
  8
HOJO_SEN
 10
0.0000000000000106
 20
172.5
 30
0.0
 11
85.000000000000014
 21
172.5
 31
0.0
  0
LINE
  5
258
  8
HOJO_SEN
 10
0.0000000000000058
 20
95.0
 30
0.0
 11
85.0
 21
95.0
 31
0.0
  0
LINE
  5
259
  8
HOJO_SEN
 10
0.0000000000000011
 20
17.5
 30
0.0
 11
85.0
 21
17.5
 31
0.0
  0
LINE
  5
25A
  8
HOJO_SEN
 10
42.500000000000043
 20
190.0
 30
0.0
 11
42.5
 21
0.0
 31
0.0
  0
POINT
  5
265
  8
PARTS
 10
28.333333333333339
 20
190.0
 30
0.0
  0
POINT
  5
266
  8
PARTS
 10
56.666666666666671
 20
190.0
 30
0.0
  0
POLYLINE
  5
284
  8
PARTS
 66
     1
 10
0.0
 20
0.0
 30
0.0
 70
     1
  0
VERTEX
  5
3F9
  8
PARTS
 10
15.557446961031021
 20
135.99999999999989
 30
0.0
  0
VERTEX
  5
3FA
  8
PARTS
 10
31.557446961031019
 20
135.99999999999989
 30
0.0
  0
VERTEX
  5
3FB
  8
PARTS
 10
31.557446961031019
 20
155.0
 30
0.0
  0
VERTEX
  5
3FC
  8
PARTS
 10
15.557446961031021
 20
155.0
 30
0.0
  0
SEQEND
  5
3FD
  8
PARTS
  0
CIRCLE
  5
286
  8
PARTS
 10
23.822307481630538
 20
124.2627751511864
 30
0.0
 40
8.5
  0
POLYLINE
  5
295
  8
PARTS
 66
     1
 10
0.0
 20
0.0
 30
0.0
 70
     1
  0
VERTEX
  5
3FE
  8
PARTS
 10
6.5000000000000284
 20
64.968590507372937
 30
0.0
  0
VERTEX
  5
3FF
  8
PARTS
 10
78.500000000000028
 20
64.968590507372937
 30
0.0
  0
VERTEX
  5
400
  8
PARTS
 10
78.500000000000028
 20
111.96859050737289
 30
0.0
  0
VERTEX
  5
401
  8
PARTS
 10
6.5000000000000284
 20
111.96859050737289
 30
0.0
  0
SEQEND
  5
402
  8
PARTS
  0
POLYLINE
  5
298
  8
PARTS
 66
     1
 10
0.0
 20
0.0
 30
0.0
 70
     1
  0
VERTEX
  5
403
  8
PARTS
 10
15.00000000000003
 20
41.261013635677948
 30
0.0
  0
VERTEX
  5
404
  8
PARTS
 10
70.000000000000028
 20
41.261013635677948
 30
0.0
  0
VERTEX
  5
405
  8
PARTS
 10
70.000000000000028
 20
56.261013635677948
 30
0.0
  0
VERTEX
  5
406
  8
PARTS
 10
15.00000000000003
 20
56.261013635677948
 30
0.0
  0
SEQEND
  5
407
  8
PARTS
  0
CIRCLE
  5
29E
  8
HOLE
 10
23.557446961031019
 20
172.5
 30
0.0
 40
4.5
  0
CIRCLE
  5
2A0
  8
HOLE
 10
61.442553038969052
 20
172.5
 30
0.0
 40
2.3500000000000001
  0
CIRCLE
  5
2A1
  8
HOLE
 10
23.822307481630538
 20
124.2627751511864
 30
0.0
 40
3.5
  0
CIRCLE
  5
2A2
  8
HOLE
 10
61.177692518369533
 20
124.2627751511864
 30
0.0
 40
3.5
  0
CIRCLE
  5
2A3
  8
HOLE
 10
42.500000000000021
 20
124.2627751511864
 30
0.0
 40
2.5
  0
LINE
  5
2A6
  8
HOLE
 10
0.0000000000000106
 20
172.5
 30
0.0
 11
85.000000000000014
 21
172.5
 31
0.0
  0
LINE
  5
2A7
  8
HOLE
 10
23.557446961031019
 20
190.0
 30
0.0
 11
23.557446961031012
 21
155.0
 31
0.0
  0
LINE
  5
2A8
  8
HOLE
 10
61.442553038969052
 20
190.0
 30
0.0
 11
61.442553038969052
 21
155.0
 31
0.0
  0
LINE
  5
2AA
  8
HOLE
 10
23.822307481630538
 20
132.76277515118639
 30
0.0
 11
23.822307481630538
 21
115.7627751511864
 31
0.0
  0
LINE
  5
2AB
  8
HOLE
 10
42.500000000000021
 20
124.2627751511864
 30
0.0
 11
42.500000000000021
 21
132.76277515118639
 31
0.0
  0
LINE
  5
2AC
  8
HOLE
 10
42.500000000000021
 20
132.76277515118639
 30
0.0
 11
42.500000000000028
 21
115.7627751511864
 31
0.0
  0
LINE
  5
2AD
  8
HOLE
 10
61.177692518369518
 20
132.76277515118639
 30
0.0
 11
61.177692518369533
 21
115.7627751511864
 31
0.0
  0
LINE
  5
2AE
  8
HOLE
 10
6.5000000000000284
 20
124.2627751511864
 30
0.0
 11
78.500000000000028
 21
124.2627751511863
 31
0.0
  0
DIMENSION
  5
2F5
  8
ANNO
  2
*D1
 10
27.06265458490353
 20
175.32197085625381
 30
0.0
 11
12.73488341328485
 21
166.31780382665761
 31
0.0
 70
     3
 15
20.052239337158511
 25
169.67802914374619
 35
0.0
 40
0.0
1001
ACAD
1000
DSTYLE
1002
{
1070
   288
1070
     1
1002
}
1001
ACAD_DSTYLE_DIMRADIAL_EXTENSION
1070
   387
1070
     1
1070
   388
1040
0.0
1070
   390
1040
0.0
  0
DIMENSION
  5
30B
  8
ANNO
  2
*D2
 10
63.034604501157212
 20
174.2285462509706
 30
0.0
 11
51.981729971078671
 21
165.42866472859191
 31
0.0
 70
     3
 15
59.850501576780928
 25
170.7714537490294
 35
0.0
 40
0.0
1001
ACAD
1000
DSTYLE
1002
{
1070
   288
1070
     1
1002
}
1001
ACAD_DSTYLE_DIMRADIAL_EXTENSION
1070
   387
1070
     1
1070
   388
1040
0.0
1070
   390
1040
0.0
  0
DIMENSION
  5
341
  8
ANNO
  2
*D3
 10
26.460902853434799
 20
126.5622999855583
 30
0.0
 11
12.93991733878287
 21
114.7788176417443
 31
0.0
 70
   131
 15
21.183712109826249
 25
121.9632503168144
 35
0.0
 40
0.0
1001
ACAD
1000
DSTYLE
1002
{
1070
   288
1070
     1
1002
}
1001
ACAD_DSTYLE_DIMRADIAL_EXTENSION
1070
   387
1070
     1
1070
   388
1040
0.0
1070
   390
1040
0.0
  0
DIMENSION
  5
357
  8
ANNO
  2
*D4
 10
44.127367989317669
 20
126.1605826828777
 30
0.0
 11
34.289776871740607
 21
117.716593325799
 31
0.0
 70
     3
 15
40.872632010682359
 25
122.364967619495
 35
0.0
 40
0.0
1001
ACAD
1000
DSTYLE
1002
{
1070
   288
1070
     1
1002
}
1001
ACAD_DSTYLE_DIMRADIAL_EXTENSION
1070
   387
1070
     1
1070
   388
1040
0.0
1070
   390
1040
0.0
  0
VIEWPORT
  5
271
 67
     1
  8
0
 10
128.5
 20
97.5
 30
0.0
 40
340.16143920595528
 41
222.18000000000001
 68
     2
 69
     1
1001
ACAD
1000
MVIEW
1002
{
1070
    16
1010
0.0
1020
0.0
1030
0.0
1010
0.0
1020
0.0
1030
1.0
1040
0.0
1040
222.18000000000001
1040
128.5
1040
97.5
1040
50.0
1040
0.0
1040
0.0
1070
     0
1070
  1000
1070
     1
1070
     1
1070
     0
1070
     0
1070
     0
1070
     0
1040
0.0
1040
0.0
1040
0.0
1040
10.0
1040
10.0
1040
10.0
1040
10.0
1070
     0
1002
{
1002
}
1002
}
  0
VIEWPORT
  5
275
 67
     1
  8
PARTS
 10
128.5
 20
97.5
 30
0.0
 40
205.59999999999999
 41
156.0
 68
     1
 69
     2
1001
ACAD
1000
MVIEW
1002
{
1070
    16
1010
0.0
1020
0.0
1030
0.0
1010
0.0
1020
0.0
1030
1.0
1040
0.0
1040
203.2013646813252
1040
42.5
1040
100.5330744701828
1040
50.0
1040
0.0
1040
0.0
1070
     0
1070
  1000
1070
     1
1070
     3
1070
     0
1070
     1
1070
     0
1070
     0
1040
0.0
1040
0.0
1040
0.0
1040
10.0
1040
10.0
1040
10.0
1040
10.0
1070
     0
1002
{
1002
}
1002
}
  0
ENDSEC
  0
EOF
