  0
SECTION
  2
HEADER
  9
$ACADVER
  1
AC1009
  9
$INSBASE
 10
0.0
 20
0.0
 30
0.0
  9
$EXTMIN
 10
0.0
 20
-40.0
 30
0.0
  9
$EXTMAX
 10
200.0
 20
190.0
 30
0.0
  9
$LIMMIN
 10
0.0
 20
0.0
  9
$LIMMAX
 10
420.0
 20
297.0
  9
$ORTHOMODE
 70
     0
  9
$REGENMODE
 70
     1
  9
$FILLMODE
 70
     1
  9
$QTEXTMODE
 70
     0
  9
$MIRRTEXT
 70
     0
  9
$DRAGMODE
 70
     2
  9
$LTSCALE
 40
1.0
  9
$OSMODE
 70
    47
  9
$ATTMODE
 70
     1
  9
$TEXTSIZE
 40
2.5
  9
$TRACEWID
 40
1.0
  9
$TEXTSTYLE
  7
STANDARD
  9
$CLAYER
  8
ANNOTATION
  9
$CELTYPE
  6
BYLAYER
  9
$CECOLOR
 62
   256
  9
$DIMSCALE
 40
1.0
  9
$DIMASZ
 40
2.5
  9
$DIMEXO
 40
0.625
  9
$DIMDLI
 40
3.75
  9
$DIMRND
 40
0.0
  9
$DIMDLE
 40
0.0
  9
$DIMEXE
 40
1.25
  9
$DIMTP
 40
0.0
  9
$DIMTM
 40
0.0
  9
$DIMTXT
 40
2.5
  9
$DIMCEN
 40
2.5
  9
$DIMTSZ
 40
0.0
  9
$DIMTOL
 70
     0
  9
$DIMLIM
 70
     0
  9
$DIMTIH
 70
     0
  9
$DIMTOH
 70
     0
  9
$DIMSE1
 70
     0
  9
$DIMSE2
 70
     0
  9
$DIMTAD
 70
     1
  9
$DIMZIN
 70
     8
  9
$DIMBLK
  1

  9
$DIMASO
 70
     1
  9
$DIMSHO
 70
     1
  9
$DIMPOST
  1

  9
$DIMAPOST
  1

  9
$DIMALT
 70
     0
  9
$DIMALTD
 70
     3
  9
$DIMALTF
 40
0.03937007874016
  9
$DIMLFAC
 40
1.0
  9
$DIMTOFL
 70
     1
  9
$DIMTVP
 40
0.0
  9
$DIMTIX
 70
     0
  9
$DIMSOXD
 70
     0
  9
$DIMSAH
 70
     0
  9
$DIMBLK1
  1

  9
$DIMBLK2
  1

  9
$DIMSTYLE
  2
ISO-25
  9
$DIMCLRD
 70
     0
  9
$DIMCLRE
 70
     0
  9
$DIMCLRT
 70
     0
  9
$DIMTFAC
 40
1.0
  9
$DIMGAP
 40
0.625
  9
$LUNITS
 70
     2
  9
$LUPREC
 70
     4
  9
$SKETCHINC
 40
1.0
  9
$FILLETRAD
 40
0.0
  9
$AUNITS
 70
     0
  9
$AUPREC
 70
     0
  9
$MENU
  1
.
  9
$ELEVATION
 40
0.0
  9
$PELEVATION
 40
0.0
  9
$THICKNESS
 40
0.0
  9
$LIMCHECK
 70
     0
  9
$BLIPMODE
 70
     0
  9
$CHAMFERA
 40
0.0
  9
$CHAMFERB
 40
0.0
  9
$SKPOLY
 70
     0
  9
$TDCREATE
 40
2456857.3270654399
  9
$TDUPDATE
 40
2456880.65374522
  9
$TDINDWG
 40
1.5038587269000001
  9
$TDUSRTIMER
 40
1.5038586111000001
  9
$USRTIMER
 70
     1
  9
$ANGBASE
 50
0.0
  9
$ANGDIR
 70
     0
  9
$PDMODE
 70
     0
  9
$PDSIZE
 40
0.0
  9
$PLINEWID
 40
0.0
  9
$COORDS
 70
     1
  9
$SPLFRAME
 70
     0
  9
$SPLINETYPE
 70
     6
  9
$SPLINESEGS
 70
     8
  9
$ATTDIA
 70
     1
  9
$ATTREQ
 70
     1
  9
$HANDLING
 70
     1
  9
$HANDSEED
  5
EAF
  9
$SURFTAB1
 70
     6
  9
$SURFTAB2
 70
     6
  9
$SURFTYPE
 70
     6
  9
$SURFU
 70
     6
  9
$SURFV
 70
     6
  9
$UCSNAME
  2

  9
$UCSORG
 10
0.0
 20
0.0
 30
0.0
  9
$UCSXDIR
 10
1.0
 20
0.0
 30
0.0
  9
$UCSYDIR
 10
0.0
 20
1.0
 30
0.0
  9
$PUCSNAME
  2

  9
$PUCSORG
 10
0.0
 20
0.0
 30
0.0
  9
$PUCSXDIR
 10
1.0
 20
0.0
 30
0.0
  9
$PUCSYDIR
 10
0.0
 20
1.0
 30
0.0
  9
$USERI1
 70
     0
  9
$USERI2
 70
     0
  9
$USERI3
 70
     0
  9
$USERI4
 70
     0
  9
$USERI5
 70
     0
  9
$USERR1
 40
0.0
  9
$USERR2
 40
0.0
  9
$USERR3
 40
0.0
  9
$USERR4
 40
0.0
  9
$USERR5
 40
0.0
  9
$WORLDVIEW
 70
     1
  9
$SHADEDGE
 70
     3
  9
$SHADEDIF
 70
    70
  9
$TILEMODE
 70
     1
  9
$MAXACTVP
 70
    64
  9
$PLIMCHECK
 70
     0
  9
$PEXTMIN
 10
25.699999999999989
 20
19.5
 30
0.0
  9
$PEXTMAX
 10
231.30000000000001
 20
175.5
 30
0.0
  9
$PLIMMIN
 10
-20.0
 20
-7.5
  9
$PLIMMAX
 10
277.0
 20
202.5
  9
$UNITMODE
 70
     0
  9
$VISRETAIN
 70
     1
  9
$PLINEGEN
 70
     0
  9
$PSLTSCALE
 70
     1
  0
ENDSEC
  0
SECTION
  2
TABLES
  0
TABLE
  2
VPORT
 70
     1
  0
VPORT
  2
*ACTIVE
 70
     0
 10
0.0
 20
0.0
 11
1.0
 21
1.0
 12
-2490.5378134631028
 22
-1821.0789122305771
 13
0.0
 23
0.0
 14
10.0
 24
10.0
 15
10.0
 25
10.0
 16
0.0
 26
0.0
 36
6658.2028318519579
 17
2630.0487816683822
 27
1926.7337563674289
 37
0.0
 40
240.93007149313439
 41
1.5348258706467659
 42
50.0
 43
0.0
 44
0.0
 50
0.0
 51
0.0
 71
     0
 72
  1000
 73
     1
 74
     3
 75
     0
 76
     1
 77
     0
 78
     0
  0
ENDTAB
  0
TABLE
  2
LTYPE
 70
     1
  0
LTYPE
  2
CONTINUOUS
 70
     0
  3
Solid line
 72
    65
 73
     0
 40
0.0
  0
ENDTAB
  0
TABLE
  2
LAYER
 70
    15
  0
LAYER
  2
0
 70
     0
 62
     7
  6
CONTINUOUS
  0
LAYER
  2
CASE
 70
     0
 62
     7
  6
CONTINUOUS
  0
LAYER
  2
KIBAN
 70
     0
 62
   112
  6
CONTINUOUS
  0
LAYER
  2
DENCHI_BOX
 70
     0
 62
   112
  6
CONTINUOUS
  0
LAYER
  2
VOLUME
 70
     0
 62
   112
  6
CONTINUOUS
  0
LAYER
  2
PHONE_JACK
 70
     0
 62
   112
  6
CONTINUOUS
  0
LAYER
  2
RCA_JACK
 70
     0
 62
   112
  6
CONTINUOUS
  0
LAYER
  2
SWITCH
 70
     0
 62
   112
  6
CONTINUOUS
  0
LAYER
  2
DC_JACK
 70
     0
 62
  -112
  6
CONTINUOUS
  0
LAYER
  2
LED
 70
     0
 62
   112
  6
CONTINUOUS
  0
LAYER
  2
HOJO_SEN
 70
     0
 62
   195
  6
CONTINUOUS
  0
LAYER
  2
HOLE
 70
     0
 62
   130
  6
CONTINUOUS
  0
LAYER
  2
GUIDE
 70
     0
 62
     7
  6
CONTINUOUS
  0
LAYER
  2
ANNOTATION
 70
     0
 62
     7
  6
CONTINUOUS
  0
LAYER
  2
DEFPOINTS
 70
     0
 62
     7
  6
CONTINUOUS
  0
ENDTAB
  0
TABLE
  2
STYLE
 70
     2
  0
STYLE
  2
STANDARD
 70
     0
 40
0.0
 41
1.0
 50
0.0
 71
     0
 42
2.5
  3
txt
  4

  0
STYLE
  2
ANNOTATIVE
 70
     0
 40
0.0
 41
1.0
 50
0.0
 71
     0
 42
2.5
  3
txt
  4

  0
ENDTAB
  0
TABLE
  2
VIEW
 70
     0
  0
ENDTAB
  0
TABLE
  2
UCS
 70
     0
  0
ENDTAB
  0
TABLE
  2
APPID
 70
    13
  0
APPID
  2
ACAD
 70
     0
  0
APPID
  2
ACAD_PSEXT
 70
     0
  0
APPID
  2
ACADANNOPO
 70
     0
  0
APPID
  2
ACADANNOTATIVE
 70
     0
  0
APPID
  2
ACAD_DSTYLE_DIMJAG
 70
     0
  0
APPID
  2
ACAD_DSTYLE_DIMTALN
 70
     0
  0
APPID
  2
ACAD_MLEADERVER
 70
     0
  0
APPID
  2
ACAD_NAV_VCDISPLAY
 70
     0
  0
APPID
  2
ACAECLAYERSTANDARD
 70
     0
  0
APPID
  2
ACCMTRANSPARENCY
 70
     0
  0
APPID
  2
ACAD_EXEMPT_FROM_CAD_STANDARDS
 70
     0
  0
APPID
  2
ACAD_DSTYLE_DIMRADIAL_EXTENSION
 70
     0
  0
APPID
  2
ACDBDYNAMICBLOCKTRUENAME2
 70
     0
  0
ENDTAB
  0
TABLE
  2
DIMSTYLE
 70
     3
  0
DIMSTYLE
  2
STANDARD
 70
     0
  3

  4

  5

  6

  7

 40
1.0
 41
0.18
 42
0.0625
 43
0.38
 44
0.18
 45
0.0
 46
0.0
 47
0.0
 48
0.0
140
0.18
141
0.09
142
0.0
143
25.399999999999999
144
1.0
145
0.0
146
1.0
147
0.09
 71
     0
 72
     0
 73
     1
 74
     1
 75
     0
 76
     0
 77
     0
 78
     0
170
     0
171
     2
172
     0
173
     0
174
     0
175
     0
176
     0
177
     0
178
     0
  0
DIMSTYLE
  2
ANNOTATIVE
 70
     0
  3

  4

  5

  6

  7

 40
0.0
 41
2.5
 42
0.625
 43
3.75
 44
1.25
 45
0.0
 46
0.0
 47
0.0
 48
0.0
140
2.5
141
2.5
142
0.0
143
0.03937007874016
144
1.0
145
0.0
146
1.0
147
0.625
 71
     0
 72
     0
 73
     0
 74
     0
 75
     0
 76
     0
 77
     1
 78
     8
170
     0
171
     3
172
     1
173
     0
174
     0
175
     0
176
     0
177
     0
178
     0
  0
DIMSTYLE
  2
ISO-25
 70
     0
  3

  4

  5

  6

  7

 40
1.0
 41
2.5
 42
0.625
 43
3.75
 44
1.25
 45
0.0
 46
0.0
 47
0.0
 48
0.0
140
2.5
141
2.5
142
0.0
143
0.03937007874016
144
1.0
145
0.0
146
1.0
147
0.625
 71
     0
 72
     0
 73
     0
 74
     0
 75
     0
 76
     0
 77
     1
 78
     8
170
     0
171
     3
172
     1
173
     0
174
     0
175
     0
176
     0
177
     0
178
     0
  0
ENDTAB
  0
ENDSEC
  0
SECTION
  2
BLOCKS
  0
BLOCK
  8
0
  2
$MODEL_SPACE
 70
     0
 10
0.0
 20
0.0
 30
0.0
  3
$MODEL_SPACE
  1

  0
ENDBLK
  5
21
  8
0
  0
BLOCK
 67
     1
  8
0
  2
$PAPER_SPACE
 70
     0
 10
0.0
 20
0.0
 30
0.0
  3
$PAPER_SPACE
  1

  0
ENDBLK
  5
D5
 67
     1
  8
0
  0
BLOCK
  8
0
  2
*U1
 70
     1
 10
0.0
 20
0.0
 30
0.0
  3
*U1
  1

  0
POLYLINE
  5
303
  8
RCA_JACK
 66
     1
 10
0.0
 20
0.0
 30
0.0
 70
     1
  0
VERTEX
  5
DE1
  8
RCA_JACK
 10
-10.326265201351561
 20
-20.5102267320874
 30
0.0
  0
VERTEX
  5
DE2
  8
RCA_JACK
 10
-2.0262652013515772
 20
-20.5102267320874
 30
0.0
  0
VERTEX
  5
DE3
  8
RCA_JACK
 10
-2.0262652013515772
 20
-11.0102267320874
 30
0.0
  0
VERTEX
  5
DE4
  8
RCA_JACK
 10
-10.326265201351561
 20
-11.0102267320874
 30
0.0
  0
SEQEND
  5
DE5
  8
RCA_JACK
  0
POLYLINE
  5
304
  8
SWITCH
 66
     1
 10
0.0
 20
0.0
 30
0.0
 70
     1
  0
VERTEX
  5
DE6
  8
SWITCH
 10
4.7862652013515676
 20
-19.65022673208739
 30
0.0
  0
VERTEX
  5
DE7
  8
SWITCH
 10
9.8662652013515526
 20
-19.65022673208739
 30
0.0
  0
VERTEX
  5
DE8
  8
SWITCH
 10
9.8662652013515526
 20
-11.0102267320874
 30
0.0
  0
VERTEX
  5
DE9
  8
SWITCH
 10
4.7862652013515676
 20
-11.0102267320874
 30
0.0
  0
SEQEND
  5
DEA
  8
SWITCH
  0
CIRCLE
  5
305
  8
RCA_JACK
 10
-6.176265201351554
 20
1.619319813737774
 30
0.0
 40
4.1500000000000004
  0
CIRCLE
  5
306
  8
RCA_JACK
 10
-6.176265201351554
 20
16.360226722087418
 30
0.0
 40
4.1500000000000004
  0
POLYLINE
  5
307
  8
SWITCH
 66
     1
 10
0.0
 20
0.0
 30
0.0
 70
     1
  0
VERTEX
  5
DEB
  8
SWITCH
 10
4.7862652013515676
 20
4.9247732679126548
 30
0.0
  0
VERTEX
  5
DEC
  8
SWITCH
 10
9.866265201351581
 20
4.9247732679126548
 30
0.0
  0
VERTEX
  5
DED
  8
SWITCH
 10
9.866265201351581
 20
13.054773267912649
 30
0.0
  0
VERTEX
  5
DEE
  8
SWITCH
 10
4.7862652013515676
 20
13.054773267912649
 30
0.0
  0
SEQEND
  5
DEF
  8
SWITCH
  0
CIRCLE
  5
308
  8
SWITCH
 10
7.3262652013515881
 20
8.9897732679125966
 30
0.0
 40
3.0
  0
ENDBLK
  5
2FE
  8
0
  0
BLOCK
  8
0
  2
*U2
 70
     1
 10
0.0
 20
0.0
 30
0.0
  3
*U2
  1

  0
INSERT
  5
317
  8
HOJO_SEN
  6
BYBLOCK
 62
     0
  2
*U1
 10
0.0
 20
0.0
 30
0.0
  0
INSERT
  5
318
  8
HOJO_SEN
  6
BYBLOCK
 62
     0
  2
*U1
 10
-25.931882260070299
 20
0.0
 30
0.0
  0
INSERT
  5
319
  8
HOJO_SEN
  6
BYBLOCK
 62
     0
  2
*U1
 10
-51.863764520140592
 20
0.0
 30
0.0
  0
INSERT
  5
31A
  8
HOJO_SEN
  6
BYBLOCK
 62
     0
  2
*U1
 10
-77.795646780210873
 20
0.0
 30
0.0
  0
ENDBLK
  5
301
  8
0
  0
BLOCK
  8
0
  2
*U3
 70
     1
 10
0.0
 20
0.0
 30
0.0
  3
*U3
  1

  0
POLYLINE
  5
343
  8
VOLUME
 66
     1
 10
0.0
 20
0.0
 30
0.0
 70
     1
  0
VERTEX
  5
DF8
  8
VOLUME
 10
-8.5
 20
11.0
 30
0.0
  0
VERTEX
  5
DF9
  8
VOLUME
 10
8.5
 20
11.0
 30
0.0
  0
VERTEX
  5
DFA
  8
VOLUME
 10
8.5
 20
22.5
 30
0.0
  0
VERTEX
  5
DFB
  8
VOLUME
 10
-8.5
 20
22.5
 30
0.0
  0
SEQEND
  5
DFC
  8
VOLUME
  0
CIRCLE
  5
344
  8
VOLUME
 10
0.0
 20
-9.0
 30
0.0
 40
8.5
  0
POLYLINE
  5
345
  8
VOLUME
 66
     1
 10
0.0
 20
0.0
 30
0.0
 70
     1
  0
VERTEX
  5
DFD
  8
VOLUME
 10
8.5
 20
-9.0000000000000036
 30
0.0
  0
VERTEX
  5
DFE
  8
VOLUME
 10
-8.5
 20
-9.0
 30
0.0
  0
VERTEX
  5
DFF
  8
VOLUME
 10
-8.5
 20
-22.5
 30
0.0
  0
VERTEX
  5
E00
  8
VOLUME
 10
8.5
 20
-22.5
 30
0.0
  0
SEQEND
  5
E01
  8
VOLUME
  0
ENDBLK
  5
33E
  8
0
  0
BLOCK
  8
0
  2
*U4
 70
     1
 10
0.0
 20
0.0
 30
0.0
  3
*U4
  1

  0
INSERT
  5
350
  8
HOJO_SEN
  6
BYBLOCK
 62
     0
  2
*U3
 10
0.0
 20
0.0
 30
0.0
  0
INSERT
  5
351
  8
HOJO_SEN
  6
BYBLOCK
 62
     0
  2
*U3
 10
25.500000029999999
 20
0.0
 30
0.0
  0
INSERT
  5
352
  8
HOJO_SEN
  6
BYBLOCK
 62
     0
  2
*U3
 10
51.000000060000012
 20
0.0
 30
0.0
  0
INSERT
  5
353
  8
HOJO_SEN
  6
BYBLOCK
 62
     0
  2
*U3
 10
76.500000090000015
 20
0.0
 30
0.0
  0
ENDBLK
  5
341
  8
0
  0
BLOCK
  8
0
  2
*D5
 70
     1
 10
0.0
 20
0.0
 30
0.0
  3
*D5
  1

  0
LINE
  5
8B2
  8
ANNOTATION
 62
     0
 10
117.0109006969448
 20
109.9763306771143
 30
0.0
 11
106.0149934663855
 21
109.9763306771143
 31
0.0
  0
INSERT
  5
8B3
  8
ANNOTATION
  2
*U46
 10
0.0
 20
0.0
 30
0.0
  0
SOLID
  5
8B4
  8
ANNOTATION
 62
     0
 10
106.0149934663855
 20
110.392997343781
 30
0.0
 11
106.0149934663855
 21
109.55966401044761
 31
0.0
 12
103.5149934663855
 22
109.9763306771143
 32
0.0
 13
103.5149934663855
 23
109.9763306771143
 33
0.0
  0
POINT
  5
8B5
  8
DEFPOINTS
 62
     0
 10
103.5149934663855
 20
109.9763306771143
 30
0.0
  0
POINT
  5
8B6
  8
DEFPOINTS
 62
     0
 10
106.71499346638549
 20
109.9763306771143
 30
0.0
  0
ENDBLK
  5
4DA
  8
0
  0
BLOCK
  8
0
  2
*D6
 70
     1
 10
0.0
 20
0.0
 30
0.0
  3
*D6
  1

  0
LINE
  5
8B7
  8
ANNOTATION
 62
     0
 10
117.0109006969448
 20
43.976330677114341
 30
0.0
 11
106.0149934663855
 21
43.976330677114341
 31
0.0
  0
INSERT
  5
8B8
  8
ANNOTATION
  2
*U47
 10
0.0
 20
0.0
 30
0.0
  0
SOLID
  5
8B9
  8
ANNOTATION
 62
     0
 10
106.0149934663855
 20
44.392997343781012
 30
0.0
 11
106.0149934663855
 21
43.559664010447683
 31
0.0
 12
103.5149934663855
 22
43.976330677114341
 32
0.0
 13
103.5149934663855
 23
43.976330677114341
 33
0.0
  0
POINT
  5
8BA
  8
DEFPOINTS
 62
     0
 10
103.5149934663855
 20
43.976330677114341
 30
0.0
  0
POINT
  5
8BB
  8
DEFPOINTS
 62
     0
 10
106.71499346638549
 20
43.976330677114341
 30
0.0
  0
ENDBLK
  5
4EA
  8
0
  0
BLOCK
  8
0
  2
*D7
 70
     1
 10
0.0
 20
0.0
 30
0.0
  3
*D7
  1

  0
LINE
  5
92C
  8
ANNOTATION
 62
     0
 10
31.210900696944851
 20
109.9763306771143
 30
0.0
 11
20.214993466385501
 21
109.9763306771143
 31
0.0
  0
LINE
  5
92D
  8
ANNOTATION
 62
     0
 10
12.01499346638551
 20
109.9763306771143
 30
0.0
 11
9.514993466385512
 21
109.9763306771143
 31
0.0
  0
INSERT
  5
92E
  8
ANNOTATION
  2
*U49
 10
0.0
 20
0.0
 30
0.0
  0
LINE
  5
92F
  8
ANNOTATION
 62
     0
 10
14.51499346638551
 20
109.9763306771143
 30
0.0
 11
17.714993466385501
 21
109.9763306771143
 31
0.0
  0
SOLID
  5
930
  8
ANNOTATION
 62
     0
 10
12.01499346638551
 20
110.392997343781
 30
0.0
 11
12.01499346638551
 21
109.5596640104477
 31
0.0
 12
14.51499346638551
 22
109.9763306771143
 32
0.0
 13
14.51499346638551
 23
109.9763306771143
 33
0.0
  0
SOLID
  5
931
  8
ANNOTATION
 62
     0
 10
20.214993466385501
 20
110.392997343781
 30
0.0
 11
20.214993466385501
 21
109.5596640104477
 31
0.0
 12
17.714993466385501
 22
109.9763306771143
 32
0.0
 13
17.714993466385501
 23
109.9763306771143
 33
0.0
  0
POINT
  5
932
  8
DEFPOINTS
 62
     0
 10
17.714993466385501
 20
109.9763306771143
 30
0.0
  0
POINT
  5
933
  8
DEFPOINTS
 62
     0
 10
14.51499346638551
 20
109.9763306771143
 30
0.0
  0
ENDBLK
  5
4FA
  8
0
  0
BLOCK
  8
0
  2
*D8
 70
     1
 10
0.0
 20
0.0
 30
0.0
  3
*D8
  1

  0
LINE
  5
934
  8
ANNOTATION
 62
     0
 10
28.010900696944852
 20
43.976330677114348
 30
0.0
 11
17.014993466385501
 21
43.976330677114348
 31
0.0
  0
INSERT
  5
935
  8
ANNOTATION
  2
*U50
 10
0.0
 20
0.0
 30
0.0
  0
SOLID
  5
936
  8
ANNOTATION
 62
     0
 10
17.014993466385501
 20
44.392997343781019
 30
0.0
 11
17.014993466385501
 21
43.55966401044769
 31
0.0
 12
14.5149934663855
 22
43.976330677114348
 32
0.0
 13
14.5149934663855
 23
43.976330677114348
 33
0.0
  0
POINT
  5
937
  8
DEFPOINTS
 62
     0
 10
14.5149934663855
 20
43.976330677114348
 30
0.0
  0
POINT
  5
938
  8
DEFPOINTS
 62
     0
 10
17.714993466385479
 20
43.976330677114348
 30
0.0
  0
ENDBLK
  5
510
  8
0
  0
BLOCK
  8
0
  2
*D9
 70
     1
 10
0.0
 20
0.0
 30
0.0
  3
*D9
  1

  0
LINE
  5
95B
  8
ANNOTATION
 62
     0
 10
192.03497026967099
 20
-30.088169294354671
 30
0.0
 11
181.03906303911171
 21
-30.088169294354671
 31
0.0
  0
INSERT
  5
95C
  8
ANNOTATION
  2
*U51
 10
0.0
 20
0.0
 30
0.0
  0
SOLID
  5
95D
  8
ANNOTATION
 62
     0
 10
181.03906303911171
 20
-29.671502627688
 30
0.0
 11
181.03906303911171
 21
-30.504835961021332
 31
0.0
 12
178.53906303911171
 22
-30.088169294354671
 32
0.0
 13
178.53906303911171
 23
-30.088169294354671
 33
0.0
  0
POINT
  5
95E
  8
DEFPOINTS
 62
     0
 10
178.53906303911171
 20
-30.088169294354671
 30
0.0
  0
POINT
  5
95F
  8
DEFPOINTS
 62
     0
 10
181.7390630391117
 20
-30.088169294354671
 30
0.0
  0
ENDBLK
  5
520
  8
0
  0
BLOCK
  8
0
  2
*D10
 70
     1
 10
0.0
 20
0.0
 30
0.0
  3
*D10
  1

  0
LINE
  5
965
  8
ANNOTATION
 62
     0
 10
187.74615717280881
 20
-14.79587275394602
 30
0.0
 11
179.6390630391117
 21
-14.79587275394602
 31
0.0
  0
INSERT
  5
966
  8
ANNOTATION
  2
*U52
 10
0.0
 20
0.0
 30
0.0
  0
SOLID
  5
967
  8
ANNOTATION
 62
     0
 10
179.6390630391117
 20
-14.37920608727935
 30
0.0
 11
179.6390630391117
 21
-15.21253942061268
 31
0.0
 12
177.1390630391117
 22
-14.79587275394602
 32
0.0
 13
177.1390630391117
 23
-14.79587275394602
 33
0.0
  0
POINT
  5
968
  8
DEFPOINTS
 62
     0
 10
177.1390630391117
 20
-14.79587275394602
 30
0.0
  0
POINT
  5
969
  8
DEFPOINTS
 62
     0
 10
183.1390630391117
 20
-14.79587275394602
 30
0.0
  0
ENDBLK
  5
530
  8
0
  0
BLOCK
  8
0
  2
*D15
 70
     1
 10
0.0
 20
0.0
 30
0.0
  3
*D15
  1

  0
LINE
  5
8F3
  8
ANNOTATION
 62
     0
 10
61.515585723361653
 20
-19.999999999999979
 30
0.0
 11
53.40167030726343
 21
-19.999999999999979
 31
0.0
  0
LINE
  5
8F4
  8
ANNOTATION
 62
     0
 10
39.40167030726343
 20
-19.999999999999979
 30
0.0
 11
36.90167030726343
 21
-19.999999999999979
 31
0.0
  0
INSERT
  5
8F5
  8
ANNOTATION
  2
*U48
 10
0.0
 20
0.0
 30
0.0
  0
LINE
  5
8F6
  8
ANNOTATION
 62
     0
 10
41.90167030726343
 20
-19.999999999999979
 30
0.0
 11
50.90167030726343
 21
-19.999999999999979
 31
0.0
  0
SOLID
  5
8F7
  8
ANNOTATION
 62
     0
 10
39.40167030726343
 20
-19.583333333333311
 30
0.0
 11
39.40167030726343
 21
-20.41666666666665
 31
0.0
 12
41.90167030726343
 22
-19.999999999999979
 32
0.0
 13
41.90167030726343
 23
-19.999999999999979
 33
0.0
  0
SOLID
  5
8F8
  8
ANNOTATION
 62
     0
 10
53.40167030726343
 20
-19.583333333333311
 30
0.0
 11
53.40167030726343
 21
-20.41666666666665
 31
0.0
 12
50.90167030726343
 22
-19.999999999999979
 32
0.0
 13
50.90167030726343
 23
-19.999999999999979
 33
0.0
  0
POINT
  5
8F9
  8
DEFPOINTS
 62
     0
 10
50.90167030726343
 20
-19.999999999999979
 30
0.0
  0
POINT
  5
8FA
  8
DEFPOINTS
 62
     0
 10
41.90167030726343
 20
-19.999999999999979
 30
0.0
  0
ENDBLK
  5
598
  8
0
  0
BLOCK
  8
0
  2
*D27
 70
     1
 10
0.0
 20
0.0
 30
0.0
  3
*D27
  1

  0
LINE
  5
ACF
  8
ANNOTATION
 62
     0
 10
50.895364272995771
 20
170.0
 30
0.0
 11
42.788270139298639
 21
170.0
 31
0.0
  0
INSERT
  5
AD0
  8
ANNOTATION
  2
*U53
 10
0.0
 20
0.0
 30
0.0
  0
SOLID
  5
AD1
  8
ANNOTATION
 62
     0
 10
42.788270139298639
 20
170.41666666666671
 30
0.0
 11
42.788270139298639
 21
169.58333333333329
 31
0.0
 12
40.288270139298639
 22
170.0
 32
0.0
 13
40.288270139298639
 23
170.0
 33
0.0
  0
POINT
  5
AD2
  8
DEFPOINTS
 62
     0
 10
40.288270139298639
 20
170.0
 30
0.0
  0
POINT
  5
AD3
  8
DEFPOINTS
 62
     0
 10
46.288270139298639
 20
170.0
 30
0.0
  0
ENDBLK
  5
AC8
  8
0
  0
BLOCK
  8
0
  2
*D28
 70
     1
 10
0.0
 20
0.0
 30
0.0
  3
*D28
  1

  0
LINE
  5
ADF
  8
ANNOTATION
 62
     0
 10
76.827246533066074
 20
170.00000000000011
 30
0.0
 11
68.720152399368942
 21
170.00000000000011
 31
0.0
  0
INSERT
  5
AE0
  8
ANNOTATION
  2
*U54
 10
0.0
 20
0.0
 30
0.0
  0
SOLID
  5
AE1
  8
ANNOTATION
 62
     0
 10
68.720152399368942
 20
170.41666666666671
 30
0.0
 11
68.720152399368942
 21
169.5833333333334
 31
0.0
 12
66.220152399368942
 22
170.00000000000011
 32
0.0
 13
66.220152399368942
 23
170.00000000000011
 33
0.0
  0
POINT
  5
AE2
  8
DEFPOINTS
 62
     0
 10
66.220152399368942
 20
170.00000000000011
 30
0.0
  0
POINT
  5
AE3
  8
DEFPOINTS
 62
     0
 10
72.220152399368942
 20
169.99999999999989
 30
0.0
  0
ENDBLK
  5
AD8
  8
0
  0
BLOCK
  8
0
  2
*D29
 70
     1
 10
0.0
 20
0.0
 30
0.0
  3
*D29
  1

  0
LINE
  5
AEF
  8
ANNOTATION
 62
     0
 10
102.7591287931363
 20
170.00000000000011
 30
0.0
 11
94.652034659439195
 21
170.00000000000011
 31
0.0
  0
INSERT
  5
AF0
  8
ANNOTATION
  2
*U55
 10
0.0
 20
0.0
 30
0.0
  0
SOLID
  5
AF1
  8
ANNOTATION
 62
     0
 10
94.652034659439195
 20
170.41666666666671
 30
0.0
 11
94.652034659439195
 21
169.5833333333334
 31
0.0
 12
92.152034659439195
 22
170.00000000000011
 32
0.0
 13
92.152034659439195
 23
170.00000000000011
 33
0.0
  0
POINT
  5
AF2
  8
DEFPOINTS
 62
     0
 10
92.152034659439195
 20
170.00000000000011
 30
0.0
  0
POINT
  5
AF3
  8
DEFPOINTS
 62
     0
 10
98.152034659439224
 20
169.99999999999969
 30
0.0
  0
ENDBLK
  5
AE8
  8
0
  0
BLOCK
  8
0
  2
*D30
 70
     1
 10
0.0
 20
0.0
 30
0.0
  3
*D30
  1

  0
LINE
  5
AFF
  8
ANNOTATION
 62
     0
 10
128.69101105320661
 20
170.0
 30
0.0
 11
120.58391691950951
 21
170.0
 31
0.0
  0
INSERT
  5
B00
  8
ANNOTATION
  2
*U56
 10
0.0
 20
0.0
 30
0.0
  0
SOLID
  5
B01
  8
ANNOTATION
 62
     0
 10
120.58391691950951
 20
170.4166666666666
 30
0.0
 11
120.58391691950951
 21
169.58333333333329
 31
0.0
 12
118.08391691950951
 22
170.0
 32
0.0
 13
118.08391691950951
 23
170.0
 33
0.0
  0
POINT
  5
B02
  8
DEFPOINTS
 62
     0
 10
118.08391691950951
 20
170.0
 30
0.0
  0
POINT
  5
B03
  8
DEFPOINTS
 62
     0
 10
124.08391691950951
 20
170.0
 30
0.0
  0
ENDBLK
  5
AF8
  8
0
  0
BLOCK
  8
0
  2
*D31
 70
     1
 10
0.0
 20
0.0
 30
0.0
  3
*D31
  1

  0
LINE
  5
BE5
  8
ANNOTATION
 62
     0
 10
6.3472130768475408
 20
177.37045345417479
 30
0.0
 11
14.45601253114495
 21
177.37045345417479
 31
0.0
  0
LINE
  5
BE6
  8
ANNOTATION
 62
     0
 10
26.45601253114495
 20
177.37045345417479
 30
0.0
 11
28.95601253114495
 21
177.37045345417479
 31
0.0
  0
INSERT
  5
BE7
  8
ANNOTATION
  2
*U72
 10
0.0
 20
0.0
 30
0.0
  0
LINE
  5
BE8
  8
ANNOTATION
 62
     0
 10
23.95601253114495
 20
177.37045345417479
 30
0.0
 11
16.95601253114495
 21
177.37045345417479
 31
0.0
  0
SOLID
  5
BE9
  8
ANNOTATION
 62
     0
 10
26.45601253114495
 20
177.78712012084151
 30
0.0
 11
26.45601253114495
 21
176.95378678750819
 31
0.0
 12
23.95601253114495
 22
177.37045345417479
 32
0.0
 13
23.95601253114495
 23
177.37045345417479
 33
0.0
  0
SOLID
  5
BEA
  8
ANNOTATION
 62
     0
 10
14.45601253114495
 20
177.78712012084151
 30
0.0
 11
14.45601253114495
 21
176.95378678750819
 31
0.0
 12
16.95601253114495
 22
177.37045345417479
 32
0.0
 13
16.95601253114495
 23
177.37045345417479
 33
0.0
  0
POINT
  5
BEB
  8
DEFPOINTS
 62
     0
 10
16.95601253114495
 20
177.37045345417479
 30
0.0
  0
POINT
  5
BEC
  8
DEFPOINTS
 62
     0
 10
23.95601253114495
 20
177.37045345417479
 30
0.0
  0
ENDBLK
  5
BDB
  8
0
  0
BLOCK
  8
0
  2
*D32
 70
     1
 10
0.0
 20
0.0
 30
0.0
  3
*D32
  1

  0
LINE
  5
BFB
  8
ANNOTATION
 62
     0
 10
6.3472130768475408
 20
162.62954654582521
 30
0.0
 11
14.45601253114495
 21
162.62954654582521
 31
0.0
  0
LINE
  5
BFC
  8
ANNOTATION
 62
     0
 10
26.45601253114495
 20
162.62954654582521
 30
0.0
 11
28.95601253114495
 21
162.62954654582521
 31
0.0
  0
INSERT
  5
BFD
  8
ANNOTATION
  2
*U73
 10
0.0
 20
0.0
 30
0.0
  0
LINE
  5
BFE
  8
ANNOTATION
 62
     0
 10
23.95601253114495
 20
162.62954654582521
 30
0.0
 11
16.95601253114495
 21
162.62954654582521
 31
0.0
  0
SOLID
  5
BFF
  8
ANNOTATION
 62
     0
 10
26.45601253114495
 20
163.04621321249181
 30
0.0
 11
26.45601253114495
 21
162.21287987915849
 31
0.0
 12
23.95601253114495
 22
162.62954654582521
 32
0.0
 13
23.95601253114495
 23
162.62954654582521
 33
0.0
  0
SOLID
  5
C00
  8
ANNOTATION
 62
     0
 10
14.45601253114495
 20
163.04621321249189
 30
0.0
 11
14.45601253114495
 21
162.21287987915849
 31
0.0
 12
16.95601253114495
 22
162.62954654582521
 32
0.0
 13
16.95601253114495
 23
162.62954654582521
 33
0.0
  0
POINT
  5
C01
  8
DEFPOINTS
 62
     0
 10
16.95601253114495
 20
162.62954654582521
 30
0.0
  0
POINT
  5
C02
  8
DEFPOINTS
 62
     0
 10
23.95601253114495
 20
162.62954654582521
 30
0.0
  0
ENDBLK
  5
BF1
  8
0
  0
BLOCK
  8
0
  2
*D33
 70
     1
 10
0.0
 20
0.0
 30
0.0
  3
*D33
  1

  0
LINE
  5
C11
  8
ANNOTATION
 62
     0
 10
42.682001087704393
 20
177.37045345417479
 30
0.0
 11
50.79080054200179
 21
177.37045345417479
 31
0.0
  0
LINE
  5
C12
  8
ANNOTATION
 62
     0
 10
62.79080054200179
 20
177.37045345417491
 30
0.0
 11
65.29080054200179
 21
177.37045345417491
 31
0.0
  0
INSERT
  5
C13
  8
ANNOTATION
  2
*U74
 10
0.0
 20
0.0
 30
0.0
  0
LINE
  5
C14
  8
ANNOTATION
 62
     0
 10
60.29080054200179
 20
177.37045345417491
 30
0.0
 11
53.29080054200179
 21
177.37045345417479
 31
0.0
  0
SOLID
  5
C15
  8
ANNOTATION
 62
     0
 10
62.79080054200179
 20
177.78712012084151
 30
0.0
 11
62.79080054200179
 21
176.95378678750819
 31
0.0
 12
60.29080054200179
 22
177.37045345417491
 32
0.0
 13
60.29080054200179
 23
177.37045345417491
 33
0.0
  0
SOLID
  5
C16
  8
ANNOTATION
 62
     0
 10
50.79080054200179
 20
177.78712012084151
 30
0.0
 11
50.79080054200179
 21
176.95378678750811
 31
0.0
 12
53.29080054200179
 22
177.37045345417479
 32
0.0
 13
53.29080054200179
 23
177.37045345417479
 33
0.0
  0
POINT
  5
C17
  8
DEFPOINTS
 62
     0
 10
53.29080054200179
 20
177.37045345417479
 30
0.0
  0
POINT
  5
C18
  8
DEFPOINTS
 62
     0
 10
60.29080054200179
 20
177.37045345417491
 30
0.0
  0
ENDBLK
  5
C07
  8
0
  0
BLOCK
  8
0
  2
*D34
 70
     1
 10
0.0
 20
0.0
 30
0.0
  3
*D34
  1

  0
LINE
  5
C27
  8
ANNOTATION
 62
     0
 10
42.682001087704379
 20
162.62954654582521
 30
0.0
 11
50.79080054200179
 21
162.62954654582521
 31
0.0
  0
LINE
  5
C28
  8
ANNOTATION
 62
     0
 10
62.79080054200179
 20
162.62954654582521
 30
0.0
 11
65.29080054200179
 21
162.62954654582521
 31
0.0
  0
INSERT
  5
C29
  8
ANNOTATION
  2
*U75
 10
0.0
 20
0.0
 30
0.0
  0
LINE
  5
C2A
  8
ANNOTATION
 62
     0
 10
60.29080054200179
 20
162.62954654582521
 30
0.0
 11
53.29080054200179
 21
162.62954654582521
 31
0.0
  0
SOLID
  5
C2B
  8
ANNOTATION
 62
     0
 10
62.79080054200179
 20
163.04621321249189
 30
0.0
 11
62.79080054200179
 21
162.21287987915849
 31
0.0
 12
60.29080054200179
 22
162.62954654582521
 32
0.0
 13
60.29080054200179
 23
162.62954654582521
 33
0.0
  0
SOLID
  5
C2C
  8
ANNOTATION
 62
     0
 10
50.79080054200179
 20
163.04621321249181
 30
0.0
 11
50.79080054200179
 21
162.21287987915849
 31
0.0
 12
53.29080054200179
 22
162.62954654582521
 32
0.0
 13
53.29080054200179
 23
162.62954654582521
 33
0.0
  0
POINT
  5
C2D
  8
DEFPOINTS
 62
     0
 10
53.29080054200179
 20
162.62954654582521
 30
0.0
  0
POINT
  5
C2E
  8
DEFPOINTS
 62
     0
 10
60.29080054200179
 20
162.62954654582521
 30
0.0
  0
ENDBLK
  5
C1D
  8
0
  0
BLOCK
  8
0
  2
*D35
 70
     1
 10
0.0
 20
0.0
 30
0.0
  3
*D35
  1

  0
LINE
  5
C3D
  8
ANNOTATION
 62
     0
 10
68.613883347774674
 20
177.37045345417479
 30
0.0
 11
76.722682802072086
 21
177.37045345417479
 31
0.0
  0
LINE
  5
C3E
  8
ANNOTATION
 62
     0
 10
88.722682802072086
 20
177.37045345417491
 30
0.0
 11
91.222682802072086
 21
177.37045345417491
 31
0.0
  0
INSERT
  5
C3F
  8
ANNOTATION
  2
*U76
 10
0.0
 20
0.0
 30
0.0
  0
LINE
  5
C40
  8
ANNOTATION
 62
     0
 10
86.222682802072086
 20
177.37045345417491
 30
0.0
 11
79.222682802072086
 21
177.37045345417479
 31
0.0
  0
SOLID
  5
C41
  8
ANNOTATION
 62
     0
 10
88.722682802072086
 20
177.78712012084151
 30
0.0
 11
88.722682802072086
 21
176.95378678750819
 31
0.0
 12
86.222682802072086
 22
177.37045345417491
 32
0.0
 13
86.222682802072086
 23
177.37045345417491
 33
0.0
  0
SOLID
  5
C42
  8
ANNOTATION
 62
     0
 10
76.722682802072086
 20
177.78712012084151
 30
0.0
 11
76.722682802072086
 21
176.95378678750811
 31
0.0
 12
79.222682802072086
 22
177.37045345417479
 32
0.0
 13
79.222682802072086
 23
177.37045345417479
 33
0.0
  0
POINT
  5
C43
  8
DEFPOINTS
 62
     0
 10
79.222682802072086
 20
177.37045345417479
 30
0.0
  0
POINT
  5
C44
  8
DEFPOINTS
 62
     0
 10
86.222682802072086
 20
177.37045345417491
 30
0.0
  0
ENDBLK
  5
C33
  8
0
  0
BLOCK
  8
0
  2
*D36
 70
     1
 10
0.0
 20
0.0
 30
0.0
  3
*D36
  1

  0
LINE
  5
C53
  8
ANNOTATION
 62
     0
 10
68.613883347774674
 20
162.62954654582521
 30
0.0
 11
76.722682802072086
 21
162.62954654582521
 31
0.0
  0
LINE
  5
C54
  8
ANNOTATION
 62
     0
 10
88.722682802072086
 20
162.62954654582521
 30
0.0
 11
91.222682802072086
 21
162.62954654582521
 31
0.0
  0
INSERT
  5
C55
  8
ANNOTATION
  2
*U77
 10
0.0
 20
0.0
 30
0.0
  0
LINE
  5
C56
  8
ANNOTATION
 62
     0
 10
86.222682802072086
 20
162.62954654582521
 30
0.0
 11
79.222682802072086
 21
162.62954654582521
 31
0.0
  0
SOLID
  5
C57
  8
ANNOTATION
 62
     0
 10
88.722682802072086
 20
163.04621321249181
 30
0.0
 11
88.722682802072086
 21
162.21287987915849
 31
0.0
 12
86.222682802072086
 22
162.62954654582521
 32
0.0
 13
86.222682802072086
 23
162.62954654582521
 33
0.0
  0
SOLID
  5
C58
  8
ANNOTATION
 62
     0
 10
76.722682802072086
 20
163.04621321249181
 30
0.0
 11
76.722682802072086
 21
162.21287987915849
 31
0.0
 12
79.222682802072086
 22
162.62954654582521
 32
0.0
 13
79.222682802072086
 23
162.62954654582521
 33
0.0
  0
POINT
  5
C59
  8
DEFPOINTS
 62
     0
 10
79.222682802072086
 20
162.62954654582521
 30
0.0
  0
POINT
  5
C5A
  8
DEFPOINTS
 62
     0
 10
86.222682802072086
 20
162.62954654582521
 30
0.0
  0
ENDBLK
  5
C49
  8
0
  0
BLOCK
  8
0
  2
*D37
 70
     1
 10
0.0
 20
0.0
 30
0.0
  3
*D37
  1

  0
LINE
  5
C69
  8
ANNOTATION
 62
     0
 10
94.54576560784497
 20
177.37045345417479
 30
0.0
 11
102.6545650621424
 21
177.37045345417479
 31
0.0
  0
LINE
  5
C6A
  8
ANNOTATION
 62
     0
 10
114.6545650621423
 20
177.37045345417491
 30
0.0
 11
117.1545650621424
 21
177.37045345417491
 31
0.0
  0
INSERT
  5
C6B
  8
ANNOTATION
  2
*U78
 10
0.0
 20
0.0
 30
0.0
  0
LINE
  5
C6C
  8
ANNOTATION
 62
     0
 10
112.1545650621424
 20
177.37045345417491
 30
0.0
 11
105.1545650621424
 21
177.37045345417479
 31
0.0
  0
SOLID
  5
C6D
  8
ANNOTATION
 62
     0
 10
114.6545650621423
 20
177.78712012084151
 30
0.0
 11
114.6545650621423
 21
176.95378678750819
 31
0.0
 12
112.1545650621424
 22
177.37045345417491
 32
0.0
 13
112.1545650621424
 23
177.37045345417491
 33
0.0
  0
SOLID
  5
C6E
  8
ANNOTATION
 62
     0
 10
102.6545650621424
 20
177.78712012084151
 30
0.0
 11
102.6545650621424
 21
176.95378678750811
 31
0.0
 12
105.1545650621424
 22
177.37045345417479
 32
0.0
 13
105.1545650621424
 23
177.37045345417479
 33
0.0
  0
POINT
  5
C6F
  8
DEFPOINTS
 62
     0
 10
105.1545650621424
 20
177.37045345417479
 30
0.0
  0
POINT
  5
C70
  8
DEFPOINTS
 62
     0
 10
112.1545650621424
 20
177.37045345417491
 30
0.0
  0
ENDBLK
  5
C5F
  8
0
  0
BLOCK
  8
0
  2
*D38
 70
     1
 10
0.0
 20
0.0
 30
0.0
  3
*D38
  1

  0
LINE
  5
C7F
  8
ANNOTATION
 62
     0
 10
94.54576560784497
 20
162.62954654582521
 30
0.0
 11
102.6545650621424
 21
162.62954654582521
 31
0.0
  0
LINE
  5
C80
  8
ANNOTATION
 62
     0
 10
114.6545650621423
 20
162.62954654582521
 30
0.0
 11
117.1545650621424
 21
162.62954654582521
 31
0.0
  0
INSERT
  5
C81
  8
ANNOTATION
  2
*U79
 10
0.0
 20
0.0
 30
0.0
  0
LINE
  5
C82
  8
ANNOTATION
 62
     0
 10
112.1545650621424
 20
162.62954654582521
 30
0.0
 11
105.1545650621424
 21
162.62954654582521
 31
0.0
  0
SOLID
  5
C83
  8
ANNOTATION
 62
     0
 10
114.6545650621423
 20
163.04621321249189
 30
0.0
 11
114.6545650621423
 21
162.21287987915849
 31
0.0
 12
112.1545650621424
 22
162.62954654582521
 32
0.0
 13
112.1545650621424
 23
162.62954654582521
 33
0.0
  0
SOLID
  5
C84
  8
ANNOTATION
 62
     0
 10
102.6545650621424
 20
163.04621321249181
 30
0.0
 11
102.6545650621424
 21
162.21287987915849
 31
0.0
 12
105.1545650621424
 22
162.62954654582521
 32
0.0
 13
105.1545650621424
 23
162.62954654582521
 33
0.0
  0
POINT
  5
C85
  8
DEFPOINTS
 62
     0
 10
105.1545650621424
 20
162.62954654582521
 30
0.0
  0
POINT
  5
C86
  8
DEFPOINTS
 62
     0
 10
112.1545650621424
 20
162.62954654582521
 30
0.0
  0
ENDBLK
  5
C75
  8
0
  0
BLOCK
  8
0
  2
*D39
 70
     1
 10
0.0
 20
0.0
 30
0.0
  3
*D39
  1

  0
LINE
  5
C95
  8
ANNOTATION
 62
     0
 10
120.47764786791519
 20
177.37045345417479
 30
0.0
 11
128.58644732221259
 21
177.37045345417479
 31
0.0
  0
LINE
  5
C96
  8
ANNOTATION
 62
     0
 10
140.58644732221271
 20
177.37045345417479
 30
0.0
 11
143.08644732221259
 21
177.37045345417479
 31
0.0
  0
INSERT
  5
C97
  8
ANNOTATION
  2
*U80
 10
0.0
 20
0.0
 30
0.0
  0
LINE
  5
C98
  8
ANNOTATION
 62
     0
 10
138.08644732221271
 20
177.37045345417479
 30
0.0
 11
131.08644732221271
 21
177.37045345417479
 31
0.0
  0
SOLID
  5
C99
  8
ANNOTATION
 62
     0
 10
140.58644732221271
 20
177.78712012084151
 30
0.0
 11
140.58644732221271
 21
176.95378678750811
 31
0.0
 12
138.08644732221271
 22
177.37045345417479
 32
0.0
 13
138.08644732221271
 23
177.37045345417479
 33
0.0
  0
SOLID
  5
C9A
  8
ANNOTATION
 62
     0
 10
128.58644732221259
 20
177.78712012084151
 30
0.0
 11
128.58644732221259
 21
176.95378678750811
 31
0.0
 12
131.08644732221271
 22
177.37045345417479
 32
0.0
 13
131.08644732221271
 23
177.37045345417479
 33
0.0
  0
POINT
  5
C9B
  8
DEFPOINTS
 62
     0
 10
131.08644732221271
 20
177.37045345417479
 30
0.0
  0
POINT
  5
C9C
  8
DEFPOINTS
 62
     0
 10
138.08644732221271
 20
177.37045345417479
 30
0.0
  0
ENDBLK
  5
C8B
  8
0
  0
BLOCK
  8
0
  2
*D40
 70
     1
 10
0.0
 20
0.0
 30
0.0
  3
*D40
  1

  0
LINE
  5
CAB
  8
ANNOTATION
 62
     0
 10
120.47764786791519
 20
162.62954654582521
 30
0.0
 11
128.58644732221259
 21
162.62954654582521
 31
0.0
  0
LINE
  5
CAC
  8
ANNOTATION
 62
     0
 10
140.58644732221271
 20
162.62954654582521
 30
0.0
 11
143.08644732221259
 21
162.62954654582521
 31
0.0
  0
INSERT
  5
CAD
  8
ANNOTATION
  2
*U81
 10
0.0
 20
0.0
 30
0.0
  0
LINE
  5
CAE
  8
ANNOTATION
 62
     0
 10
138.08644732221271
 20
162.62954654582521
 30
0.0
 11
131.08644732221271
 21
162.62954654582521
 31
0.0
  0
SOLID
  5
CAF
  8
ANNOTATION
 62
     0
 10
140.58644732221271
 20
163.04621321249189
 30
0.0
 11
140.58644732221271
 21
162.21287987915849
 31
0.0
 12
138.08644732221271
 22
162.62954654582521
 32
0.0
 13
138.08644732221271
 23
162.62954654582521
 33
0.0
  0
SOLID
  5
CB0
  8
ANNOTATION
 62
     0
 10
128.58644732221259
 20
163.04621321249181
 30
0.0
 11
128.58644732221259
 21
162.21287987915849
 31
0.0
 12
131.08644732221271
 22
162.62954654582521
 32
0.0
 13
131.08644732221271
 23
162.62954654582521
 33
0.0
  0
POINT
  5
CB1
  8
DEFPOINTS
 62
     0
 10
131.08644732221271
 20
162.62954654582521
 30
0.0
  0
POINT
  5
CB2
  8
DEFPOINTS
 62
     0
 10
138.08644732221271
 20
162.62954654582521
 30
0.0
  0
ENDBLK
  5
CA1
  8
0
  0
BLOCK
  8
0
  2
*D41
 70
     1
 10
0.0
 20
0.0
 30
0.0
  3
*D41
  1

  0
LINE
  5
CC1
  8
ANNOTATION
 62
     0
 10
7.2679019053546803
 20
-19.999999999999979
 30
0.0
 11
15.37670135965209
 21
-19.999999999999979
 31
0.0
  0
LINE
  5
CC2
  8
ANNOTATION
 62
     0
 10
27.376701359652088
 20
-19.999999999999979
 30
0.0
 11
29.876701359652088
 21
-19.999999999999979
 31
0.0
  0
INSERT
  5
CC3
  8
ANNOTATION
  2
*U82
 10
0.0
 20
0.0
 30
0.0
  0
LINE
  5
CC4
  8
ANNOTATION
 62
     0
 10
24.876701359652088
 20
-19.999999999999979
 30
0.0
 11
17.876701359652088
 21
-19.999999999999979
 31
0.0
  0
SOLID
  5
CC5
  8
ANNOTATION
 62
     0
 10
27.376701359652088
 20
-19.583333333333311
 30
0.0
 11
27.376701359652088
 21
-20.41666666666665
 31
0.0
 12
24.876701359652088
 22
-19.999999999999979
 32
0.0
 13
24.876701359652088
 23
-19.999999999999979
 33
0.0
  0
SOLID
  5
CC6
  8
ANNOTATION
 62
     0
 10
15.37670135965209
 20
-19.583333333333311
 30
0.0
 11
15.37670135965209
 21
-20.41666666666665
 31
0.0
 12
17.876701359652088
 22
-19.999999999999979
 32
0.0
 13
17.876701359652088
 23
-19.999999999999979
 33
0.0
  0
POINT
  5
CC7
  8
DEFPOINTS
 62
     0
 10
17.876701359652088
 20
-19.999999999999979
 30
0.0
  0
POINT
  5
CC8
  8
DEFPOINTS
 62
     0
 10
24.876701359652088
 20
-19.999999999999979
 30
0.0
  0
ENDBLK
  5
CB7
  8
0
  0
BLOCK
  8
0
  2
*D42
 70
     1
 10
0.0
 20
0.0
 30
0.0
  3
*D42
  1

  0
LINE
  5
CD7
  8
ANNOTATION
 62
     0
 10
64.754353037780447
 20
-19.999999999999979
 30
0.0
 11
72.863152492077859
 21
-19.999999999999979
 31
0.0
  0
LINE
  5
CD8
  8
ANNOTATION
 62
     0
 10
84.863152492077859
 20
-19.999999999999979
 30
0.0
 11
87.363152492077859
 21
-19.999999999999979
 31
0.0
  0
INSERT
  5
CD9
  8
ANNOTATION
  2
*U83
 10
0.0
 20
0.0
 30
0.0
  0
LINE
  5
CDA
  8
ANNOTATION
 62
     0
 10
82.363152492077859
 20
-19.999999999999979
 30
0.0
 11
75.363152492077859
 21
-19.999999999999979
 31
0.0
  0
SOLID
  5
CDB
  8
ANNOTATION
 62
     0
 10
84.863152492077859
 20
-19.583333333333321
 30
0.0
 11
84.863152492077859
 21
-20.416666666666661
 31
0.0
 12
82.363152492077859
 22
-19.999999999999979
 32
0.0
 13
82.363152492077859
 23
-19.999999999999979
 33
0.0
  0
SOLID
  5
CDC
  8
ANNOTATION
 62
     0
 10
72.863152492077859
 20
-19.583333333333321
 30
0.0
 11
72.863152492077859
 21
-20.416666666666661
 31
0.0
 12
75.363152492077859
 22
-19.999999999999979
 32
0.0
 13
75.363152492077859
 23
-19.999999999999979
 33
0.0
  0
POINT
  5
CDD
  8
DEFPOINTS
 62
     0
 10
75.363152492077859
 20
-19.999999999999979
 30
0.0
  0
POINT
  5
CDE
  8
DEFPOINTS
 62
     0
 10
82.363152492077859
 20
-19.999999999999979
 30
0.0
  0
ENDBLK
  5
CCD
  8
0
  0
BLOCK
  8
0
  2
*D43
 70
     1
 10
0.0
 20
0.0
 30
0.0
  3
*D43
  1

  0
LINE
  5
CED
  8
ANNOTATION
 62
     0
 10
90.254353067780457
 20
-20.0
 30
0.0
 11
98.363152522077868
 21
-20.0
 31
0.0
  0
LINE
  5
CEE
  8
ANNOTATION
 62
     0
 10
110.3631525220778
 20
-19.999999999999979
 30
0.0
 11
112.8631525220779
 21
-19.999999999999979
 31
0.0
  0
INSERT
  5
CEF
  8
ANNOTATION
  2
*U84
 10
0.0
 20
0.0
 30
0.0
  0
LINE
  5
CF0
  8
ANNOTATION
 62
     0
 10
107.8631525220778
 20
-19.999999999999979
 30
0.0
 11
100.8631525220778
 21
-20.0
 31
0.0
  0
SOLID
  5
CF1
  8
ANNOTATION
 62
     0
 10
110.3631525220778
 20
-19.583333333333311
 30
0.0
 11
110.3631525220778
 21
-20.41666666666665
 31
0.0
 12
107.8631525220778
 22
-19.999999999999979
 32
0.0
 13
107.8631525220778
 23
-19.999999999999979
 33
0.0
  0
SOLID
  5
CF2
  8
ANNOTATION
 62
     0
 10
98.363152522077868
 20
-19.583333333333329
 30
0.0
 11
98.363152522077868
 21
-20.416666666666661
 31
0.0
 12
100.8631525220778
 22
-20.0
 32
0.0
 13
100.8631525220778
 23
-20.0
 33
0.0
  0
POINT
  5
CF3
  8
DEFPOINTS
 62
     0
 10
100.8631525220778
 20
-20.0
 30
0.0
  0
POINT
  5
CF4
  8
DEFPOINTS
 62
     0
 10
107.8631525220778
 20
-19.999999999999979
 30
0.0
  0
ENDBLK
  5
CE3
  8
0
  0
BLOCK
  8
0
  2
*D44
 70
     1
 10
0.0
 20
0.0
 30
0.0
  3
*D44
  1

  0
LINE
  5
D03
  8
ANNOTATION
 62
     0
 10
115.7543530977804
 20
-20.0
 30
0.0
 11
123.86315255207781
 21
-20.0
 31
0.0
  0
LINE
  5
D04
  8
ANNOTATION
 62
     0
 10
135.86315255207791
 20
-19.999999999999989
 30
0.0
 11
138.36315255207779
 21
-19.999999999999989
 31
0.0
  0
INSERT
  5
D05
  8
ANNOTATION
  2
*U85
 10
0.0
 20
0.0
 30
0.0
  0
LINE
  5
D06
  8
ANNOTATION
 62
     0
 10
133.36315255207791
 20
-19.999999999999989
 30
0.0
 11
126.36315255207791
 21
-20.0
 31
0.0
  0
SOLID
  5
D07
  8
ANNOTATION
 62
     0
 10
135.86315255207791
 20
-19.583333333333321
 30
0.0
 11
135.86315255207791
 21
-20.416666666666661
 31
0.0
 12
133.36315255207791
 22
-19.999999999999989
 32
0.0
 13
133.36315255207791
 23
-19.999999999999989
 33
0.0
  0
SOLID
  5
D08
  8
ANNOTATION
 62
     0
 10
123.86315255207781
 20
-19.583333333333329
 30
0.0
 11
123.86315255207781
 21
-20.416666666666661
 31
0.0
 12
126.36315255207791
 22
-20.0
 32
0.0
 13
126.36315255207791
 23
-20.0
 33
0.0
  0
POINT
  5
D09
  8
DEFPOINTS
 62
     0
 10
126.36315255207791
 20
-20.0
 30
0.0
  0
POINT
  5
D0A
  8
DEFPOINTS
 62
     0
 10
133.36315255207791
 20
-19.999999999999989
 30
0.0
  0
ENDBLK
  5
CF9
  8
0
  0
BLOCK
  8
0
  2
*D45
 70
     1
 10
0.0
 20
0.0
 30
0.0
  3
*D45
  1

  0
LINE
  5
D19
  8
ANNOTATION
 62
     0
 10
141.25435312778049
 20
-20.0
 30
0.0
 11
149.3631525820779
 21
-20.0
 31
0.0
  0
LINE
  5
D1A
  8
ANNOTATION
 62
     0
 10
161.36315258207779
 20
-19.999999999999989
 30
0.0
 11
163.8631525820779
 21
-19.999999999999989
 31
0.0
  0
INSERT
  5
D1B
  8
ANNOTATION
  2
*U86
 10
0.0
 20
0.0
 30
0.0
  0
LINE
  5
D1C
  8
ANNOTATION
 62
     0
 10
158.8631525820779
 20
-19.999999999999989
 30
0.0
 11
151.86315258207779
 21
-20.0
 31
0.0
  0
SOLID
  5
D1D
  8
ANNOTATION
 62
     0
 10
161.36315258207779
 20
-19.583333333333321
 30
0.0
 11
161.36315258207779
 21
-20.416666666666661
 31
0.0
 12
158.8631525820779
 22
-19.999999999999989
 32
0.0
 13
158.8631525820779
 23
-19.999999999999989
 33
0.0
  0
SOLID
  5
D1E
  8
ANNOTATION
 62
     0
 10
149.3631525820779
 20
-19.583333333333329
 30
0.0
 11
149.3631525820779
 21
-20.416666666666661
 31
0.0
 12
151.86315258207779
 22
-20.0
 32
0.0
 13
151.86315258207779
 23
-20.0
 33
0.0
  0
POINT
  5
D1F
  8
DEFPOINTS
 62
     0
 10
151.86315258207779
 20
-20.0
 30
0.0
  0
POINT
  5
D20
  8
DEFPOINTS
 62
     0
 10
158.8631525820779
 20
-19.999999999999989
 30
0.0
  0
ENDBLK
  5
D0F
  8
0
  0
BLOCK
  8
0
  2
*U46
 70
     1
 10
0.0
 20
0.0
 30
0.0
  3
*U46
  1

  0
TEXT
  5
E0C
  8
ANNOTATION
 62
     0
 10
108.9984518565628
 20
111.0958736511934
 30
0.0
 40
2.5
  1
\U+00D83,2
  0
ENDBLK
  5
E0E
  8
0
  0
BLOCK
  8
0
  2
*U47
 70
     1
 10
0.0
 20
0.0
 30
0.0
  3
*U47
  1

  0
TEXT
  5
E10
  8
ANNOTATION
 62
     0
 10
108.9984518565628
 20
45.095873651193457
 30
0.0
 40
2.5
  1
\U+00D83,2
  0
ENDBLK
  5
E12
  8
0
  0
BLOCK
  8
0
  2
*U48
 70
     1
 10
0.0
 20
0.0
 30
0.0
  3
*U48
  1

  0
TEXT
  5
E14
  8
ANNOTATION
 62
     0
 10
56.385128697440777
 20
-19.274386084583881
 30
0.0
 40
2.5
  1
\U+00D89
  0
ENDBLK
  5
E16
  8
0
  0
BLOCK
  8
0
  2
*U49
 70
     1
 10
0.0
 20
0.0
 30
0.0
  3
*U49
  1

  0
TEXT
  5
E18
  8
ANNOTATION
 62
     0
 10
23.198451856562851
 20
111.0958736511935
 30
0.0
 40
2.5
  1
\U+00D83,2
  0
ENDBLK
  5
E1A
  8
0
  0
BLOCK
  8
0
  2
*U50
 70
     1
 10
0.0
 20
0.0
 30
0.0
  3
*U50
  1

  0
TEXT
  5
E1C
  8
ANNOTATION
 62
     0
 10
19.998451856562848
 20
45.095873651193472
 30
0.0
 40
2.5
  1
\U+00D83,2
  0
ENDBLK
  5
E1E
  8
0
  0
BLOCK
  8
0
  2
*U51
 70
     1
 10
0.0
 20
0.0
 30
0.0
  3
*U51
  1

  0
TEXT
  5
E20
  8
ANNOTATION
 62
     0
 10
184.0225214292891
 20
-28.96862632027554
 30
0.0
 40
2.5
  1
\U+00D83,2
  0
ENDBLK
  5
E22
  8
0
  0
BLOCK
  8
0
  2
*U52
 70
     1
 10
0.0
 20
0.0
 30
0.0
  3
*U52
  1

  0
TEXT
  5
E24
  8
ANNOTATION
 62
     0
 10
182.62252142928901
 20
-14.07025883852992
 30
0.0
 40
2.5
  1
\U+00D86
  0
ENDBLK
  5
E26
  8
0
  0
BLOCK
  8
0
  2
*U53
 70
     1
 10
0.0
 20
0.0
 30
0.0
  3
*U53
  1

  0
TEXT
  5
E28
  8
ANNOTATION
 62
     0
 10
45.771728529476
 20
170.72561391541609
 30
0.0
 40
2.5
  1
\U+00D86
  0
ENDBLK
  5
E2A
  8
0
  0
BLOCK
  8
0
  2
*U54
 70
     1
 10
0.0
 20
0.0
 30
0.0
  3
*U54
  1

  0
TEXT
  5
E2C
  8
ANNOTATION
 62
     0
 10
71.703610789546289
 20
170.7256139154162
 30
0.0
 40
2.5
  1
\U+00D86
  0
ENDBLK
  5
E2E
  8
0
  0
BLOCK
  8
0
  2
*U55
 70
     1
 10
0.0
 20
0.0
 30
0.0
  3
*U55
  1

  0
TEXT
  5
E30
  8
ANNOTATION
 62
     0
 10
97.635493049616571
 20
170.7256139154162
 30
0.0
 40
2.5
  1
\U+00D86
  0
ENDBLK
  5
E32
  8
0
  0
BLOCK
  8
0
  2
*U56
 70
     1
 10
0.0
 20
0.0
 30
0.0
  3
*U56
  1

  0
TEXT
  5
E34
  8
ANNOTATION
 62
     0
 10
123.5673753096868
 20
170.72561391541609
 30
0.0
 40
2.5
  1
\U+00D86
  0
ENDBLK
  5
E36
  8
0
  0
BLOCK
  8
0
  2
*U57
 70
     1
 10
0.0
 20
0.0
 30
0.0
  3
*U57
  1

  0
TEXT
  5
E38
  8
ANNOTATION
 62
     0
 10
7.3323767876251669
 20
178.09606736959091
 30
0.0
 40
2.5
  1
\U+00D86
  0
ENDBLK
  5
E3A
  8
0
  0
BLOCK
  8
0
  2
*U58
 70
     1
 10
0.0
 20
0.0
 30
0.0
  3
*U58
  1

  0
TEXT
  5
E3C
  8
ANNOTATION
 62
     0
 10
7.3323767876251669
 20
163.35516046124121
 30
0.0
 40
2.5
  1
\U+00D86
  0
ENDBLK
  5
E3E
  8
0
  0
BLOCK
  8
0
  2
*U59
 70
     1
 10
0.0
 20
0.0
 30
0.0
  3
*U59
  1

  0
TEXT
  5
E40
  8
ANNOTATION
 62
     0
 10
43.667164798482013
 20
163.35516046124121
 30
0.0
 40
2.5
  1
\U+00D86
  0
ENDBLK
  5
E42
  8
0
  0
BLOCK
  8
0
  2
*U60
 70
     1
 10
0.0
 20
0.0
 30
0.0
  3
*U60
  1

  0
TEXT
  5
E44
  8
ANNOTATION
 62
     0
 10
43.66716479848202
 20
178.09606736959091
 30
0.0
 40
2.5
  1
\U+00D86
  0
ENDBLK
  5
E46
  8
0
  0
BLOCK
  8
0
  2
*U61
 70
     1
 10
0.0
 20
0.0
 30
0.0
  3
*U61
  1

  0
TEXT
  5
E48
  8
ANNOTATION
 62
     0
 10
69.599047058552301
 20
178.09606736959091
 30
0.0
 40
2.5
  1
\U+00D86
  0
ENDBLK
  5
E4A
  8
0
  0
BLOCK
  8
0
  2
*U62
 70
     1
 10
0.0
 20
0.0
 30
0.0
  3
*U62
  1

  0
TEXT
  5
E4C
  8
ANNOTATION
 62
     0
 10
69.599047058552301
 20
163.3551604612413
 30
0.0
 40
2.5
  1
\U+00D86
  0
ENDBLK
  5
E4E
  8
0
  0
BLOCK
  8
0
  2
*U63
 70
     1
 10
0.0
 20
0.0
 30
0.0
  3
*U63
  1

  0
TEXT
  5
E50
  8
ANNOTATION
 62
     0
 10
95.530929318622583
 20
163.35516046124121
 30
0.0
 40
2.5
  1
\U+00D86
  0
ENDBLK
  5
E52
  8
0
  0
BLOCK
  8
0
  2
*U64
 70
     1
 10
0.0
 20
0.0
 30
0.0
  3
*U64
  1

  0
TEXT
  5
E54
  8
ANNOTATION
 62
     0
 10
95.530929318622583
 20
178.09606736959091
 30
0.0
 40
2.5
  1
\U+00D86
  0
ENDBLK
  5
E56
  8
0
  0
BLOCK
  8
0
  2
*U65
 70
     1
 10
0.0
 20
0.0
 30
0.0
  3
*U65
  1

  0
TEXT
  5
E58
  8
ANNOTATION
 62
     0
 10
121.46281157869289
 20
178.09606736959091
 30
0.0
 40
2.5
  1
\U+00D86
  0
ENDBLK
  5
E5A
  8
0
  0
BLOCK
  8
0
  2
*U66
 70
     1
 10
0.0
 20
0.0
 30
0.0
  3
*U66
  1

  0
TEXT
  5
E5C
  8
ANNOTATION
 62
     0
 10
121.46281157869289
 20
163.35516046124121
 30
0.0
 40
2.5
  1
\U+00D86
  0
ENDBLK
  5
E5E
  8
0
  0
BLOCK
  8
0
  2
*U67
 70
     1
 10
0.0
 20
0.0
 30
0.0
  3
*U67
  1

  0
TEXT
  5
E60
  8
ANNOTATION
 62
     0
 10
29.860159749829439
 20
-19.274386084583881
 30
0.0
 40
2.5
  1
\U+00D86
  0
ENDBLK
  5
E62
  8
0
  0
BLOCK
  8
0
  2
*U68
 70
     1
 10
0.0
 20
0.0
 30
0.0
  3
*U68
  1

  0
TEXT
  5
E64
  8
ANNOTATION
 62
     0
 10
87.346610882255206
 20
-19.274386084583892
 30
0.0
 40
2.5
  1
\U+00D86
  0
ENDBLK
  5
E66
  8
0
  0
BLOCK
  8
0
  2
*U69
 70
     1
 10
0.0
 20
0.0
 30
0.0
  3
*U69
  1

  0
TEXT
  5
E68
  8
ANNOTATION
 62
     0
 10
112.8466109122552
 20
-19.274386084583892
 30
0.0
 40
2.5
  1
\U+00D86
  0
ENDBLK
  5
E6A
  8
0
  0
BLOCK
  8
0
  2
*U70
 70
     1
 10
0.0
 20
0.0
 30
0.0
  3
*U70
  1

  0
TEXT
  5
E6C
  8
ANNOTATION
 62
     0
 10
138.34661094225521
 20
-19.274386084583909
 30
0.0
 40
2.5
  1
\U+00D86
 50
359.99999999999989
  0
ENDBLK
  5
E6E
  8
0
  0
BLOCK
  8
0
  2
*U71
 70
     1
 10
0.0
 20
0.0
 30
0.0
  3
*U71
  1

  0
TEXT
  5
E70
  8
ANNOTATION
 62
     0
 10
163.84661097225521
 20
-19.274386084583892
 30
0.0
 40
2.5
  1
\U+00D86
  0
ENDBLK
  5
E72
  8
0
  0
BLOCK
  8
0
  2
*U72
 70
     1
 10
0.0
 20
0.0
 30
0.0
  3
*U72
  1

  0
TEXT
  5
E74
  8
ANNOTATION
 62
     0
 10
6.830671467024894
 20
178.09606736959091
 30
0.0
 40
2.5
  1
\U+00D87
  0
ENDBLK
  5
E76
  8
0
  0
BLOCK
  8
0
  2
*U73
 70
     1
 10
0.0
 20
0.0
 30
0.0
  3
*U73
  1

  0
TEXT
  5
E78
  8
ANNOTATION
 62
     0
 10
6.830671467024894
 20
163.3551604612413
 30
0.0
 40
2.5
  1
\U+00D87
  0
ENDBLK
  5
E7A
  8
0
  0
BLOCK
  8
0
  2
*U74
 70
     1
 10
0.0
 20
0.0
 30
0.0
  3
*U74
  1

  0
TEXT
  5
E7C
  8
ANNOTATION
 62
     0
 10
43.165459477881733
 20
178.09606736959091
 30
0.0
 40
2.5
  1
\U+00D87
  0
ENDBLK
  5
E7E
  8
0
  0
BLOCK
  8
0
  2
*U75
 70
     1
 10
0.0
 20
0.0
 30
0.0
  3
*U75
  1

  0
TEXT
  5
E80
  8
ANNOTATION
 62
     0
 10
43.165459477881733
 20
163.35516046124121
 30
0.0
 40
2.5
  1
\U+00D87
  0
ENDBLK
  5
E82
  8
0
  0
BLOCK
  8
0
  2
*U76
 70
     1
 10
0.0
 20
0.0
 30
0.0
  3
*U76
  1

  0
TEXT
  5
E84
  8
ANNOTATION
 62
     0
 10
69.097341737952021
 20
178.09606736959091
 30
0.0
 40
2.5
  1
\U+00D87
  0
ENDBLK
  5
E86
  8
0
  0
BLOCK
  8
0
  2
*U77
 70
     1
 10
0.0
 20
0.0
 30
0.0
  3
*U77
  1

  0
TEXT
  5
E88
  8
ANNOTATION
 62
     0
 10
69.097341737952021
 20
163.3551604612413
 30
0.0
 40
2.5
  1
\U+00D87
  0
ENDBLK
  5
E8A
  8
0
  0
BLOCK
  8
0
  2
*U78
 70
     1
 10
0.0
 20
0.0
 30
0.0
  3
*U78
  1

  0
TEXT
  5
E8C
  8
ANNOTATION
 62
     0
 10
95.029223998022317
 20
178.09606736959091
 30
0.0
 40
2.5
  1
\U+00D87
  0
ENDBLK
  5
E8E
  8
0
  0
BLOCK
  8
0
  2
*U79
 70
     1
 10
0.0
 20
0.0
 30
0.0
  3
*U79
  1

  0
TEXT
  5
E90
  8
ANNOTATION
 62
     0
 10
95.029223998022317
 20
163.35516046124121
 30
0.0
 40
2.5
  1
\U+00D87
  0
ENDBLK
  5
E92
  8
0
  0
BLOCK
  8
0
  2
*U80
 70
     1
 10
0.0
 20
0.0
 30
0.0
  3
*U80
  1

  0
TEXT
  5
E94
  8
ANNOTATION
 62
     0
 10
120.9611062580926
 20
178.09606736959091
 30
0.0
 40
2.5
  1
\U+00D87
  0
ENDBLK
  5
E96
  8
0
  0
BLOCK
  8
0
  2
*U81
 70
     1
 10
0.0
 20
0.0
 30
0.0
  3
*U81
  1

  0
TEXT
  5
E98
  8
ANNOTATION
 62
     0
 10
120.9611062580926
 20
163.35516046124121
 30
0.0
 40
2.5
  1
\U+00D87
  0
ENDBLK
  5
E9A
  8
0
  0
BLOCK
  8
0
  2
*U82
 70
     1
 10
0.0
 20
0.0
 30
0.0
  3
*U82
  1

  0
TEXT
  5
E9C
  8
ANNOTATION
 62
     0
 10
7.7513602955320327
 20
-19.274386084583881
 30
0.0
 40
2.5
  1
\U+00D87
  0
ENDBLK
  5
E9E
  8
0
  0
BLOCK
  8
0
  2
*U83
 70
     1
 10
0.0
 20
0.0
 30
0.0
  3
*U83
  1

  0
TEXT
  5
EA0
  8
ANNOTATION
 62
     0
 10
65.237811427957794
 20
-19.274386084583892
 30
0.0
 40
2.5
  1
\U+00D87
  0
ENDBLK
  5
EA2
  8
0
  0
BLOCK
  8
0
  2
*U84
 70
     1
 10
0.0
 20
0.0
 30
0.0
  3
*U84
  1

  0
TEXT
  5
EA4
  8
ANNOTATION
 62
     0
 10
90.737811457957804
 20
-19.274386084583899
 30
0.0
 40
2.5
  1
\U+00D87
  0
ENDBLK
  5
EA6
  8
0
  0
BLOCK
  8
0
  2
*U85
 70
     1
 10
0.0
 20
0.0
 30
0.0
  3
*U85
  1

  0
TEXT
  5
EA8
  8
ANNOTATION
 62
     0
 10
116.2378114879578
 20
-19.274386084583899
 30
0.0
 40
2.5
  1
\U+00D87
  0
ENDBLK
  5
EAA
  8
0
  0
BLOCK
  8
0
  2
*U86
 70
     1
 10
0.0
 20
0.0
 30
0.0
  3
*U86
  1

  0
TEXT
  5
EAC
  8
ANNOTATION
 62
     0
 10
141.73781151795779
 20
-19.274386084583899
 30
0.0
 40
2.5
  1
\U+00D87
  0
ENDBLK
  5
EAE
  8
0
  0
ENDSEC
  0
SECTION
  2
ENTITIES
  0
POLYLINE
  5
248
  8
CASE
 66
     1
 10
0.0
 20
0.0
 30
0.0
 70
     1
  0
VERTEX
  5
D93
  8
CASE
 10
200.0
 20
0.0
 30
0.0
  0
VERTEX
  5
D94
  8
CASE
 10
0.0
 20
0.0000000000000247
 30
0.0
  0
VERTEX
  5
D95
  8
CASE
 10
0.0000000000000284
 20
150.0
 30
0.0
  0
VERTEX
  5
D96
  8
CASE
 10
200.0
 20
150.0
 30
0.0
  0
SEQEND
  5
D97
  8
CASE
  0
POLYLINE
  5
24A
  8
KIBAN
 66
     1
 10
0.0
 20
0.0
 30
0.0
 70
     1
  0
VERTEX
  5
D98
  8
KIBAN
 10
108.1149934663855
 20
40.976330677114341
 30
0.0
  0
VERTEX
  5
D99
  8
KIBAN
 10
13.114993466385499
 20
40.976330677114348
 30
0.0
  0
VERTEX
  5
D9A
  8
KIBAN
 10
13.114993466385499
 20
112.9763306771143
 30
0.0
  0
VERTEX
  5
D9B
  8
KIBAN
 10
108.1149934663855
 20
112.9763306771143
 30
0.0
  0
SEQEND
  5
D9C
  8
KIBAN
  0
POLYLINE
  5
24F
  8
DENCHI_BOX
 66
     1
 10
0.0
 20
0.0
 30
0.0
 70
     1
  0
VERTEX
  5
D9D
  8
DENCHI_BOX
 10
179.4243506970611
 20
79.828112518782063
 30
0.0
  0
VERTEX
  5
D9E
  8
DENCHI_BOX
 10
122.4243506970611
 20
79.828112518782092
 30
0.0
  0
VERTEX
  5
D9F
  8
DENCHI_BOX
 10
122.4243506970611
 20
127.82811251878201
 30
0.0
  0
VERTEX
  5
DA0
  8
DENCHI_BOX
 10
179.4243506970611
 20
127.82811251878201
 30
0.0
  0
SEQEND
  5
DA1
  8
DENCHI_BOX
  0
POLYLINE
  5
250
  8
DENCHI_BOX
 66
     1
 10
0.0
 20
0.0
 30
0.0
 70
     1
  0
VERTEX
  5
DA2
  8
DENCHI_BOX
 10
179.4243506970611
 20
31.828112518782081
 30
0.0
  0
VERTEX
  5
DA3
  8
DENCHI_BOX
 10
122.424350697061
 20
31.828112518782088
 30
0.0
  0
VERTEX
  5
DA4
  8
DENCHI_BOX
 10
122.4243506970611
 20
79.828112518782092
 30
0.0
  0
VERTEX
  5
DA5
  8
DENCHI_BOX
 10
179.4243506970611
 20
79.828112518782063
 30
0.0
  0
SEQEND
  5
DA6
  8
DENCHI_BOX
  0
POLYLINE
  5
25A
  8
VOLUME
 66
     1
 10
0.0
 20
0.0
 30
0.0
 70
     1
  0
VERTEX
  5
DA7
  8
VOLUME
 10
29.876701359652088
 20
0.000000000000021
 30
0.0
  0
VERTEX
  5
DA8
  8
VOLUME
 10
12.87670135965209
 20
0.0000000000000231
 30
0.0
  0
VERTEX
  5
DA9
  8
VOLUME
 10
12.87670135965209
 20
11.50000000000002
 30
0.0
  0
VERTEX
  5
DAA
  8
VOLUME
 10
29.876701359652088
 20
11.50000000000002
 30
0.0
  0
SEQEND
  5
DAB
  8
VOLUME
  0
POLYLINE
  5
25C
  8
PHONE_JACK
 66
     1
 10
0.0
 20
0.0
 30
0.0
 70
     1
  0
VERTEX
  5
DAC
  8
PHONE_JACK
 10
54.40167030726343
 20
0.0000000000000183
 30
0.0
  0
VERTEX
  5
DAD
  8
PHONE_JACK
 10
38.40167030726343
 20
0.0000000000000202
 30
0.0
  0
VERTEX
  5
DAE
  8
PHONE_JACK
 10
38.40167030726343
 20
19.000000000000021
 30
0.0
  0
VERTEX
  5
DAF
  8
PHONE_JACK
 10
54.40167030726343
 20
19.000000000000021
 30
0.0
  0
SEQEND
  5
DB0
  8
PHONE_JACK
  0
POLYLINE
  5
266
  8
RCA_JACK
 66
     1
 10
0.0
 20
0.0
 30
0.0
 70
     1
  0
VERTEX
  5
DB1
  8
RCA_JACK
 10
24.606012531145041
 20
140.5
 30
0.0
  0
VERTEX
  5
DB2
  8
RCA_JACK
 10
16.306012531145029
 20
140.5
 30
0.0
  0
VERTEX
  5
DB3
  8
RCA_JACK
 10
16.306012531145029
 20
150.0
 30
0.0
  0
VERTEX
  5
DB4
  8
RCA_JACK
 10
24.606012531145041
 20
150.0
 30
0.0
  0
SEQEND
  5
DB5
  8
RCA_JACK
  0
POLYLINE
  5
26B
  8
SWITCH
 66
     1
 10
0.0
 20
0.0
 30
0.0
 70
     1
  0
VERTEX
  5
DB6
  8
SWITCH
 10
190.86000000000001
 20
8.6400000000000023
 30
0.0
  0
VERTEX
  5
DB7
  8
SWITCH
 10
190.86000000000001
 20
8.6400000000000023
 30
0.0
  0
VERTEX
  5
DB8
  8
SWITCH
 10
190.86000000000001
 20
8.6400000000000023
 30
0.0
  0
VERTEX
  5
DB9
  8
SWITCH
 10
190.86000000000001
 20
8.6400000000000023
 30
0.0
  0
SEQEND
  5
DBA
  8
SWITCH
  0
POLYLINE
  5
26C
  8
SWITCH
 66
     1
 10
0.0
 20
0.0
 30
0.0
 70
     1
  0
VERTEX
  5
DBB
  8
SWITCH
 10
184.7090630391117
 20
0.0000000000000019
 30
0.0
  0
VERTEX
  5
DBC
  8
SWITCH
 10
175.56906303911171
 20
0.000000000000003
 30
0.0
  0
VERTEX
  5
DBD
  8
SWITCH
 10
175.56906303911171
 20
8.6400000000000041
 30
0.0
  0
VERTEX
  5
DBE
  8
SWITCH
 10
184.7090630391117
 20
8.6400000000000023
 30
0.0
  0
SEQEND
  5
DBF
  8
SWITCH
  0
POLYLINE
  5
278
  8
CASE
 66
     1
 10
0.0
 20
0.0
 30
0.0
 70
     1
  0
VERTEX
  5
DC0
  8
CASE
 10
200.0
 20
150.0
 30
0.0
  0
VERTEX
  5
DC1
  8
CASE
 10
0.0000000000000284
 20
150.0
 30
0.0
  0
VERTEX
  5
DC2
  8
CASE
 10
0.0000000000000284
 20
190.0
 30
0.0
  0
VERTEX
  5
DC3
  8
CASE
 10
200.0
 20
190.0
 30
0.0
  0
SEQEND
  5
DC4
  8
CASE
  0
POLYLINE
  5
284
  8
CASE
 66
     1
 10
0.0
 20
0.0
 30
0.0
 70
     1
  0
VERTEX
  5
DC5
  8
CASE
 10
200.0
 20
0.0
 30
0.0
  0
VERTEX
  5
DC6
  8
CASE
 10
0.0
 20
0.0000000000000247
 30
0.0
  0
VERTEX
  5
DC7
  8
CASE
 10
0.0
 20
-39.999999999999979
 30
0.0
  0
VERTEX
  5
DC8
  8
CASE
 10
200.0
 20
-40.0
 30
0.0
  0
SEQEND
  5
DC9
  8
CASE
  0
POLYLINE
  5
285
  8
SWITCH
 66
     1
 10
0.0
 20
0.0
 30
0.0
 70
     1
  0
VERTEX
  5
DCA
  8
SWITCH
 10
184.7090630391117
 20
-10.73087275394608
 30
0.0
  0
VERTEX
  5
DCB
  8
SWITCH
 10
175.56906303911171
 20
-10.73087275394608
 30
0.0
  0
VERTEX
  5
DCC
  8
SWITCH
 10
175.56906303911171
 20
-18.860872753946079
 30
0.0
  0
VERTEX
  5
DCD
  8
SWITCH
 10
184.7090630391117
 20
-18.860872753946079
 30
0.0
  0
SEQEND
  5
DCE
  8
SWITCH
  0
CIRCLE
  5
289
  8
SWITCH
 10
180.1390630391117
 20
-14.79587275394602
 30
0.0
 40
3.0
  0
POLYLINE
  5
28B
  8
PHONE_JACK
 66
     1
 10
0.0
 20
0.0
 30
0.0
 70
     1
  0
VERTEX
  5
DCF
  8
PHONE_JACK
 10
54.40167030726343
 20
-11.99999999999998
 30
0.0
  0
VERTEX
  5
DD0
  8
PHONE_JACK
 10
38.40167030726343
 20
-11.99999999999998
 30
0.0
  0
VERTEX
  5
DD1
  8
PHONE_JACK
 10
38.40167030726343
 20
-27.999999999999979
 30
0.0
  0
VERTEX
  5
DD2
  8
PHONE_JACK
 10
54.40167030726343
 20
-27.999999999999979
 30
0.0
  0
SEQEND
  5
DD3
  8
PHONE_JACK
  0
POLYLINE
  5
291
  8
DC_JACK
 66
     1
 10
0.0
 20
0.0
 30
0.0
 70
     1
  0
VERTEX
  5
DD4
  8
DC_JACK
 10
179.24850671410189
 20
150.0
 30
0.0
  0
VERTEX
  5
DD5
  8
DC_JACK
 10
167.24850671410201
 20
150.0
 30
0.0
  0
VERTEX
  5
DD6
  8
DC_JACK
 10
167.24850671410189
 20
142.0
 30
0.0
  0
VERTEX
  5
DD7
  8
DC_JACK
 10
179.24850671410189
 20
142.0
 30
0.0
  0
SEQEND
  5
DD8
  8
DC_JACK
  0
POLYLINE
  5
292
  8
DC_JACK
 66
     1
 10
0.0
 20
0.0
 30
0.0
 70
     1
  0
VERTEX
  5
DD9
  8
DC_JACK
 10
179.24850671410189
 20
162.0
 30
0.0
  0
VERTEX
  5
DDA
  8
DC_JACK
 10
167.24850671410201
 20
162.0
 30
0.0
  0
VERTEX
  5
DDB
  8
DC_JACK
 10
167.24850671410201
 20
174.0
 30
0.0
  0
VERTEX
  5
DDC
  8
DC_JACK
 10
179.24850671410189
 20
174.0
 30
0.0
  0
SEQEND
  5
DDD
  8
DC_JACK
  0
CIRCLE
  5
293
  8
DC_JACK
 10
173.24850671410201
 20
168.0
 30
0.0
 40
4.5
  0
CIRCLE
  5
298
  8
LED
 10
180.1390630391117
 20
-30.088169294354671
 30
0.0
 40
1.5
  0
CIRCLE
  5
29D
  8
PHONE_JACK
 10
46.40167030726343
 20
-19.999999999999979
 30
0.0
 40
4.5
  0
LINE
  5
2CD
  8
HOJO_SEN
 10
200.0
 20
170.0
 30
0.0
 11
0.0000000000000284
 21
170.0
 31
0.0
  0
LINE
  5
2CE
  8
HOJO_SEN
 10
0.0000000000000284
 20
170.0
 30
0.0
 11
200.0
 21
170.0
 31
0.0
  0
LINE
  5
2CF
  8
HOJO_SEN
 10
200.0
 20
170.0
 30
0.0
 11
0.0000000000000284
 21
170.0
 31
0.0
  0
LINE
  5
2D0
  8
HOJO_SEN
 10
100.0
 20
190.0
 30
0.0
 11
100.0
 21
-39.999999999999993
 31
0.0
  0
LINE
  5
2D1
  8
HOJO_SEN
 10
200.0
 20
-20.0
 30
0.0
 11
0.0
 21
-19.999999999999972
 31
0.0
  0
LINE
  5
2D2
  8
HOJO_SEN
 10
200.0
 20
75.0
 30
0.0
 11
0.0
 21
75.000000000000028
 31
0.0
  0
CIRCLE
  5
2F8
  8
RCA_JACK
 10
20.45601253114495
 20
162.62954654582521
 30
0.0
 40
4.1500000000000004
  0
CIRCLE
  5
2F9
  8
RCA_JACK
 10
20.45601253114495
 20
177.37045345417479
 30
0.0
 40
4.1500000000000004
  0
INSERT
  5
302
  8
HOJO_SEN
  2
*U2
 10
50.614535340650228
 20
161.0102267320874
 30
0.0
 41
-1.0
  0
CIRCLE
  5
31F
  8
VOLUME
 10
21.376701359652088
 20
-19.999999999999979
 30
0.0
 40
8.5
  0
POLYLINE
  5
320
  8
VOLUME
 66
     1
 10
0.0
 20
0.0
 30
0.0
 70
     1
  0
VERTEX
  5
DF0
  8
VOLUME
 10
12.87670135965209
 20
-19.999999999999979
 30
0.0
  0
VERTEX
  5
DF1
  8
VOLUME
 10
29.876701359652088
 20
-19.999999999999979
 30
0.0
  0
VERTEX
  5
DF2
  8
VOLUME
 10
29.876701359652088
 20
-33.499999999999979
 30
0.0
  0
VERTEX
  5
DF3
  8
VOLUME
 10
12.87670135965209
 20
-33.499999999999979
 30
0.0
  0
SEQEND
  5
DF4
  8
VOLUME
  0
INSERT
  5
342
  8
HOJO_SEN
  2
*U4
 10
155.36315258207779
 20
-10.999999999999989
 30
0.0
 41
-1.0
  0
LINE
  5
39D
  8
HOLE
 10
150.1454113813233
 20
177.37045345417479
 30
0.0
 11
6.8950398727596962
 21
177.37045345417479
 31
0.0
  0
LINE
  5
39E
  8
HOLE
 10
150.1454113813233
 20
162.62954654582521
 30
0.0
 11
6.8950398727596962
 21
162.62954654582521
 31
0.0
  0
LINE
  5
39F
  8
HOLE
 10
134.58644732221259
 20
185.43470142173669
 30
0.0
 11
134.58644732221259
 21
154.220001188542
 31
0.0
  0
LINE
  5
3A3
  8
HOLE
 10
108.6545650621423
 20
185.43470142173669
 30
0.0
 11
108.6545650621423
 21
154.220001188542
 31
0.0
  0
LINE
  5
3A4
  8
HOLE
 10
82.7226828020721
 20
185.43470142173669
 30
0.0
 11
82.722682802072086
 21
154.220001188542
 31
0.0
  0
LINE
  5
3A5
  8
HOLE
 10
56.79080054200179
 20
185.43470142173669
 30
0.0
 11
56.790800542001818
 21
154.220001188542
 31
0.0
  0
LINE
  5
3A6
  8
HOLE
 10
20.45601253114495
 20
185.43470142173669
 30
0.0
 11
20.45601253114495
 21
154.220001188542
 31
0.0
  0
CIRCLE
  5
3A7
  8
HOLE
 10
121.08391691950951
 20
170.0
 30
0.0
 40
3.0
  0
LINE
  5
3B5
  8
GUIDE
 10
150.1454113813233
 20
177.37045345417479
 30
0.0
 11
6.8950398727596962
 21
177.37045345417479
 31
0.0
  0
LINE
  5
3B6
  8
GUIDE
 10
150.1454113813233
 20
162.62954654582521
 30
0.0
 11
6.8950398727596962
 21
162.62954654582521
 31
0.0
  0
LINE
  5
3B7
  8
GUIDE
 10
134.58644732221259
 20
185.43470142173669
 30
0.0
 11
134.58644732221259
 21
154.220001188542
 31
0.0
  0
LINE
  5
3B8
  8
GUIDE
 10
108.6545650621423
 20
185.43470142173669
 30
0.0
 11
108.6545650621423
 21
154.220001188542
 31
0.0
  0
LINE
  5
3B9
  8
GUIDE
 10
82.7226828020721
 20
185.43470142173669
 30
0.0
 11
82.722682802072086
 21
154.220001188542
 31
0.0
  0
LINE
  5
3BA
  8
GUIDE
 10
56.79080054200179
 20
185.43470142173669
 30
0.0
 11
56.790800542001818
 21
154.220001188542
 31
0.0
  0
LINE
  5
3BB
  8
GUIDE
 10
20.45601253114495
 20
185.43470142173669
 30
0.0
 11
20.45601253114495
 21
154.220001188542
 31
0.0
  0
LINE
  5
3BD
  8
GUIDE
 10
127.60925206133319
 20
170.0
 30
0.0
 11
35.302560232950214
 21
170.0
 31
0.0
  0
LINE
  5
3BE
  8
GUIDE
 10
121.08391691950951
 20
174.065
 30
0.0
 11
121.08391691950951
 21
165.935
 31
0.0
  0
CIRCLE
  5
3BF
  8
HOLE
 10
95.152034659439209
 20
169.99999999999989
 30
0.0
 40
3.0
  0
CIRCLE
  5
3C0
  8
HOLE
 10
69.220152399368942
 20
170.0
 30
0.0
 40
3.0
  0
CIRCLE
  5
3C1
  8
HOLE
 10
43.288270139298639
 20
170.0
 30
0.0
 40
3.0
  0
LINE
  5
3C2
  8
GUIDE
 10
95.152034659439238
 20
174.065
 30
0.0
 11
95.152034659439238
 21
165.935
 31
0.0
  0
LINE
  5
3C3
  8
GUIDE
 10
69.22015239936897
 20
174.06500000000011
 30
0.0
 11
69.22015239936897
 21
165.93500000000009
 31
0.0
  0
LINE
  5
3C4
  8
GUIDE
 10
43.288270139298639
 20
174.06500000000011
 30
0.0
 11
43.288270139298639
 21
165.93500000000009
 31
0.0
  0
CIRCLE
  5
3C5
  8
HOLE
 10
180.1390630391117
 20
-30.088169294354671
 30
0.0
 40
1.6000000000000001
  0
CIRCLE
  5
3C6
  8
HOLE
 10
180.1390630391117
 20
-14.79587275394602
 30
0.0
 40
3.0
  0
CIRCLE
  5
3D1
  8
HOLE
 10
46.40167030726343
 20
-19.999999999999979
 30
0.0
 40
4.5
  0
LINE
  5
3D2
  8
GUIDE
 10
184.7090630391117
 20
-20.0
 30
0.0
 11
12.87670135965209
 21
-19.999999999999979
 31
0.0
  0
LINE
  5
3D3
  8
GUIDE
 10
155.36315258207779
 20
-8.2447458316453268
 30
0.0
 11
155.36315258207779
 21
-33.5
 31
0.0
  0
LINE
  5
3D4
  8
GUIDE
 10
129.86315255207771
 20
-8.2447458316453233
 30
0.0
 11
129.86315255207779
 21
-33.5
 31
0.0
  0
LINE
  5
3D5
  8
GUIDE
 10
104.3631525220778
 20
-33.499999999999993
 30
0.0
 11
104.3631525220778
 21
-8.2447458316453197
 31
0.0
  0
LINE
  5
3D6
  8
GUIDE
 10
78.863152492077717
 20
-8.2447458316453162
 30
0.0
 11
78.863152492077859
 21
-33.499999999999993
 31
0.0
  0
LINE
  5
3D7
  8
GUIDE
 10
46.40167030726343
 20
-11.99999999999998
 30
0.0
 11
46.40167030726343
 21
-27.999999999999979
 31
0.0
  0
LINE
  5
3D8
  8
GUIDE
 10
21.376701359651889
 20
-8.2447458316453108
 30
0.0
 11
21.376701359652088
 21
-33.499999999999979
 31
0.0
  0
LINE
  5
3D9
  8
GUIDE
 10
184.7090630391117
 20
-14.79587275394608
 30
0.0
 11
175.56906303911171
 21
-14.79587275394608
 31
0.0
  0
LINE
  5
3DA
  8
GUIDE
 10
180.1390630391117
 20
-36.330243911501682
 30
0.0
 11
180.1390630391117
 21
-6.3183099296734957
 31
0.0
  0
LINE
  5
3DB
  8
GUIDE
 10
184.70906303911181
 20
-30.088169294354671
 30
0.0
 11
175.569063039112
 21
-30.088169294354671
 31
0.0
  0
POLYLINE
  5
3DF
  8
HOJO_SEN
 66
     1
 10
0.0
 20
0.0
 30
0.0
 70
     1
  0
VERTEX
  5
E02
  8
HOJO_SEN
 10
105.1149934663855
 20
43.976330677114341
 30
0.0
  0
VERTEX
  5
E03
  8
HOJO_SEN
 10
16.114993466385499
 20
43.976330677114348
 30
0.0
  0
VERTEX
  5
E04
  8
HOJO_SEN
 10
16.114993466385499
 20
109.9763306771143
 30
0.0
  0
VERTEX
  5
E05
  8
HOJO_SEN
 10
105.1149934663855
 20
109.9763306771143
 30
0.0
  0
SEQEND
  5
E06
  8
HOJO_SEN
  0
CIRCLE
  5
3E0
  8
HOLE
 10
105.1149934663855
 20
109.9763306771143
 30
0.0
 40
1.6000000000000001
  0
CIRCLE
  5
3E1
  8
HOLE
 10
105.1149934663855
 20
43.976330677114341
 30
0.0
 40
1.6000000000000001
  0
CIRCLE
  5
3E2
  8
HOLE
 10
16.114993466385499
 20
109.9763306771143
 30
0.0
 40
1.6000000000000001
  0
CIRCLE
  5
3E3
  8
HOLE
 10
16.114993466385499
 20
43.976330677114348
 30
0.0
 40
1.6000000000000001
  0
LINE
  5
3E4
  8
GUIDE
 10
108.1149934663855
 20
109.9763306771143
 30
0.0
 11
13.114993466385499
 21
109.9763306771143
 31
0.0
  0
LINE
  5
3E5
  8
GUIDE
 10
108.1149934663855
 20
43.976330677114341
 30
0.0
 11
13.114993466385499
 21
43.976330677114348
 31
0.0
  0
LINE
  5
3E6
  8
GUIDE
 10
105.1149934663855
 20
109.9763306771143
 30
0.0
 11
105.1149934663855
 21
112.9763306771143
 31
0.0
  0
LINE
  5
3E7
  8
GUIDE
 10
105.1149934663855
 20
112.9763306771143
 30
0.0
 11
105.1149934663855
 21
40.976330677114341
 31
0.0
  0
LINE
  5
3E8
  8
GUIDE
 10
16.114993466385499
 20
112.9763306771143
 30
0.0
 11
16.114993466385499
 21
40.976330677114348
 31
0.0
  0
DIMENSION
  5
4D7
  8
ANNOTATION
  2
*D5
 10
106.71499346638549
 20
109.9763306771143
 30
0.0
 11
112.7629470816652
 21
109.9763306771143
 31
0.0
 70
   131
 15
103.5149934663855
 25
109.9763306771143
 35
0.0
 40
0.0
1001
ACAD
1000
DSTYLE
1002
{
1070
   288
1070
     1
1002
}
1001
ACAD_DSTYLE_DIMRADIAL_EXTENSION
1070
   387
1070
     1
1070
   388
1040
0.0
1070
   390
1040
0.0
  0
DIMENSION
  5
4E7
  8
ANNOTATION
  2
*D6
 10
106.71499346638549
 20
43.976330677114341
 30
0.0
 11
112.7629470816652
 21
43.976330677114341
 31
0.0
 70
   131
 15
103.5149934663855
 25
43.976330677114341
 35
0.0
 40
0.0
1001
ACAD
1000
DSTYLE
1002
{
1070
   288
1070
     1
1002
}
1001
ACAD_DSTYLE_DIMRADIAL_EXTENSION
1070
   387
1070
     1
1070
   388
1040
0.0
1070
   390
1040
0.0
  0
DIMENSION
  5
4F7
  8
ANNOTATION
  2
*D7
 10
14.51499346638551
 20
109.9763306771143
 30
0.0
 11
26.96294708166517
 21
112.1446458203613
 31
0.0
 70
     3
 15
17.714993466385501
 25
109.9763306771143
 35
0.0
 40
0.0
1001
ACAD
1000
DSTYLE
1002
{
1070
   288
1070
     1
1002
}
1001
ACAD_DSTYLE_DIMRADIAL_EXTENSION
1070
   387
1070
     1
1070
   388
1040
0.0
1070
   390
1040
0.0
  0
DIMENSION
  5
50D
  8
ANNOTATION
  2
*D8
 10
17.714993466385479
 20
43.976330677114348
 30
0.0
 11
23.762947081665171
 21
43.976330677114348
 31
0.0
 70
   131
 15
14.5149934663855
 25
43.976330677114348
 35
0.0
 40
0.0
1001
ACAD
1000
DSTYLE
1002
{
1070
   288
1070
     1
1002
}
1001
ACAD_DSTYLE_DIMRADIAL_EXTENSION
1070
   387
1070
     1
1070
   388
1040
0.0
1070
   390
1040
0.0
  0
DIMENSION
  5
51D
  8
ANNOTATION
  2
*D9
 10
181.7390630391117
 20
-30.088169294354671
 30
0.0
 11
187.78701665439141
 21
-30.088169294354671
 31
0.0
 70
   131
 15
178.53906303911171
 25
-30.088169294354671
 35
0.0
 40
0.0
1001
ACAD
1000
DSTYLE
1002
{
1070
   288
1070
     1
1002
}
1001
ACAD_DSTYLE_DIMRADIAL_EXTENSION
1070
   387
1070
     1
1070
   388
1040
0.0
1070
   390
1040
0.0
  0
DIMENSION
  5
52D
  8
ANNOTATION
  2
*D10
 10
183.1390630391117
 20
-14.79587275394602
 30
0.0
 11
184.94261010596031
 21
-14.79587275394602
 31
0.0
 70
   131
 15
177.1390630391117
 25
-14.79587275394602
 35
0.0
 40
0.0
1001
ACAD
1000
DSTYLE
1002
{
1070
   288
1070
     1
1002
}
1001
ACAD_DSTYLE_DIMRADIAL_EXTENSION
1070
   387
1070
     1
1070
   388
1040
0.0
1070
   390
1040
0.0
  0
DIMENSION
  5
595
  8
ANNOTATION
  2
*D15
 10
41.90167030726343
 20
-19.999999999999979
 30
0.0
 11
58.708628015312541
 21
-18.02864938608457
 31
0.0
 70
     3
 15
50.90167030726343
 25
-19.999999999999979
 35
0.0
 40
0.0
1001
ACAD
1000
DSTYLE
1002
{
1070
   288
1070
     1
1002
}
1001
ACAD_DSTYLE_DIMRADIAL_EXTENSION
1070
   387
1070
     1
1070
   388
1040
0.0
1070
   390
1040
0.0
  0
DIMENSION
  5
AC5
  8
ANNOTATION
  2
*D27
 10
46.288270139298639
 20
170.0
 30
0.0
 11
48.091817206147212
 21
170.0
 31
0.0
 70
   131
 15
40.288270139298639
 25
170.0
 35
0.0
 40
0.0
1001
ACAD
1000
DSTYLE
1002
{
1070
   288
1070
     1
1002
}
1001
ACAD_DSTYLE_DIMRADIAL_EXTENSION
1070
   387
1070
     1
1070
   388
1040
0.0
1070
   390
1040
0.0
  0
DIMENSION
  5
AD5
  8
ANNOTATION
  2
*D28
 10
72.220152399368942
 20
169.99999999999989
 30
0.0
 11
74.023699466217494
 21
170.00000000000011
 31
0.0
 70
   131
 15
66.220152399368942
 25
170.00000000000011
 35
0.0
 40
0.0
1001
ACAD
1000
DSTYLE
1002
{
1070
   288
1070
     1
1002
}
1001
ACAD_DSTYLE_DIMRADIAL_EXTENSION
1070
   387
1070
     1
1070
   388
1040
0.0
1070
   390
1040
0.0
  0
DIMENSION
  5
AE5
  8
ANNOTATION
  2
*D29
 10
98.152034659439224
 20
169.99999999999969
 30
0.0
 11
99.955581726287775
 21
170.00000000000011
 31
0.0
 70
   131
 15
92.152034659439195
 25
170.00000000000011
 35
0.0
 40
0.0
1001
ACAD
1000
DSTYLE
1002
{
1070
   288
1070
     1
1002
}
1001
ACAD_DSTYLE_DIMRADIAL_EXTENSION
1070
   387
1070
     1
1070
   388
1040
0.0
1070
   390
1040
0.0
  0
DIMENSION
  5
AF5
  8
ANNOTATION
  2
*D30
 10
124.08391691950951
 20
170.0
 30
0.0
 11
125.8874639863581
 21
170.0
 31
0.0
 70
   131
 15
118.08391691950951
 25
170.0
 35
0.0
 40
0.0
1001
ACAD
1000
DSTYLE
1002
{
1070
   288
1070
     1
1002
}
1001
ACAD_DSTYLE_DIMRADIAL_EXTENSION
1070
   387
1070
     1
1070
   388
1040
0.0
1070
   390
1040
0.0
  0
CIRCLE
  5
BC9
  8
HOLE
 10
20.45601253114495
 20
177.37045345417479
 30
0.0
 40
3.5
  0
CIRCLE
  5
BCA
  8
HOLE
 10
20.45601253114495
 20
162.62954654582521
 30
0.0
 40
3.5
  0
CIRCLE
  5
BCB
  8
HOLE
 10
56.790800542001797
 20
177.37045345417479
 30
0.0
 40
3.5
  0
CIRCLE
  5
BCC
  8
HOLE
 10
56.79080054200179
 20
162.62954654582521
 30
0.0
 40
3.5
  0
CIRCLE
  5
BCD
  8
HOLE
 10
82.722682802072086
 20
177.37045345417479
 30
0.0
 40
3.5
  0
CIRCLE
  5
BCE
  8
HOLE
 10
82.722682802072086
 20
162.62954654582521
 30
0.0
 40
3.5
  0
CIRCLE
  5
BCF
  8
HOLE
 10
108.6545650621424
 20
177.37045345417479
 30
0.0
 40
3.5
  0
CIRCLE
  5
BD0
  8
HOLE
 10
108.6545650621424
 20
162.62954654582521
 30
0.0
 40
3.5
  0
CIRCLE
  5
BD1
  8
HOLE
 10
134.58644732221259
 20
177.37045345417479
 30
0.0
 40
3.5
  0
CIRCLE
  5
BD2
  8
HOLE
 10
134.58644732221259
 20
162.62954654582521
 30
0.0
 40
3.5
  0
CIRCLE
  5
BD3
  8
HOLE
 10
21.376701359652088
 20
-19.999999999999979
 30
0.0
 40
3.5
  0
CIRCLE
  5
BD4
  8
HOLE
 10
78.863152492077859
 20
-19.999999999999979
 30
0.0
 40
3.5
  0
CIRCLE
  5
BD5
  8
HOLE
 10
104.3631525220778
 20
-19.999999999999989
 30
0.0
 40
3.5
  0
CIRCLE
  5
BD6
  8
HOLE
 10
129.86315255207779
 20
-19.999999999999989
 30
0.0
 40
3.5
  0
CIRCLE
  5
BD7
  8
HOLE
 10
155.36315258207779
 20
-19.999999999999989
 30
0.0
 40
3.5
  0
DIMENSION
  5
BD8
  8
ANNOTATION
  2
*D31
 10
23.95601253114495
 20
177.37045345417479
 30
0.0
 11
9.1516128039962457
 21
179.3418040680902
 31
0.0
 70
     3
 15
16.95601253114495
 25
177.37045345417479
 35
0.0
 40
0.0
1001
ACAD
1000
DSTYLE
1002
{
1070
   288
1070
     1
1002
}
1001
ACAD_DSTYLE_DIMRADIAL_EXTENSION
1070
   387
1070
     1
1070
   388
1040
0.0
1070
   390
1040
0.0
  0
DIMENSION
  5
BEE
  8
ANNOTATION
  2
*D32
 10
23.95601253114495
 20
162.62954654582521
 30
0.0
 11
9.1516128039962457
 21
164.60089715974061
 31
0.0
 70
     3
 15
16.95601253114495
 25
162.62954654582521
 35
0.0
 40
0.0
1001
ACAD
1000
DSTYLE
1002
{
1070
   288
1070
     1
1002
}
1001
ACAD_DSTYLE_DIMRADIAL_EXTENSION
1070
   387
1070
     1
1070
   388
1040
0.0
1070
   390
1040
0.0
  0
DIMENSION
  5
C04
  8
ANNOTATION
  2
*D33
 10
60.29080054200179
 20
177.37045345417491
 30
0.0
 11
45.486400814853077
 21
179.3418040680902
 31
0.0
 70
     3
 15
53.29080054200179
 25
177.37045345417479
 35
0.0
 40
0.0
1001
ACAD
1000
DSTYLE
1002
{
1070
   288
1070
     1
1002
}
1001
ACAD_DSTYLE_DIMRADIAL_EXTENSION
1070
   387
1070
     1
1070
   388
1040
0.0
1070
   390
1040
0.0
  0
DIMENSION
  5
C1A
  8
ANNOTATION
  2
*D34
 10
60.29080054200179
 20
162.62954654582521
 30
0.0
 11
45.486400814853077
 21
164.60089715974061
 31
0.0
 70
     3
 15
53.29080054200179
 25
162.62954654582521
 35
0.0
 40
0.0
1001
ACAD
1000
DSTYLE
1002
{
1070
   288
1070
     1
1002
}
1001
ACAD_DSTYLE_DIMRADIAL_EXTENSION
1070
   387
1070
     1
1070
   388
1040
0.0
1070
   390
1040
0.0
  0
DIMENSION
  5
C30
  8
ANNOTATION
  2
*D35
 10
86.222682802072086
 20
177.37045345417491
 30
0.0
 11
71.41828307492338
 21
179.3418040680902
 31
0.0
 70
     3
 15
79.222682802072086
 25
177.37045345417479
 35
0.0
 40
0.0
1001
ACAD
1000
DSTYLE
1002
{
1070
   288
1070
     1
1002
}
1001
ACAD_DSTYLE_DIMRADIAL_EXTENSION
1070
   387
1070
     1
1070
   388
1040
0.0
1070
   390
1040
0.0
  0
DIMENSION
  5
C46
  8
ANNOTATION
  2
*D36
 10
86.222682802072086
 20
162.62954654582521
 30
0.0
 11
71.41828307492338
 21
164.60089715974061
 31
0.0
 70
     3
 15
79.222682802072086
 25
162.62954654582521
 35
0.0
 40
0.0
1001
ACAD
1000
DSTYLE
1002
{
1070
   288
1070
     1
1002
}
1001
ACAD_DSTYLE_DIMRADIAL_EXTENSION
1070
   387
1070
     1
1070
   388
1040
0.0
1070
   390
1040
0.0
  0
DIMENSION
  5
C5C
  8
ANNOTATION
  2
*D37
 10
112.1545650621424
 20
177.37045345417491
 30
0.0
 11
97.35016533499369
 21
179.3418040680902
 31
0.0
 70
     3
 15
105.1545650621424
 25
177.37045345417479
 35
0.0
 40
0.0
1001
ACAD
1000
DSTYLE
1002
{
1070
   288
1070
     1
1002
}
1001
ACAD_DSTYLE_DIMRADIAL_EXTENSION
1070
   387
1070
     1
1070
   388
1040
0.0
1070
   390
1040
0.0
  0
DIMENSION
  5
C72
  8
ANNOTATION
  2
*D38
 10
112.1545650621424
 20
162.62954654582521
 30
0.0
 11
97.35016533499369
 21
164.60089715974061
 31
0.0
 70
     3
 15
105.1545650621424
 25
162.62954654582521
 35
0.0
 40
0.0
1001
ACAD
1000
DSTYLE
1002
{
1070
   288
1070
     1
1002
}
1001
ACAD_DSTYLE_DIMRADIAL_EXTENSION
1070
   387
1070
     1
1070
   388
1040
0.0
1070
   390
1040
0.0
  0
DIMENSION
  5
C88
  8
ANNOTATION
  2
*D39
 10
138.08644732221271
 20
177.37045345417479
 30
0.0
 11
123.282047595064
 21
179.3418040680902
 31
0.0
 70
     3
 15
131.08644732221271
 25
177.37045345417479
 35
0.0
 40
0.0
1001
ACAD
1000
DSTYLE
1002
{
1070
   288
1070
     1
1002
}
1001
ACAD_DSTYLE_DIMRADIAL_EXTENSION
1070
   387
1070
     1
1070
   388
1040
0.0
1070
   390
1040
0.0
  0
DIMENSION
  5
C9E
  8
ANNOTATION
  2
*D40
 10
138.08644732221271
 20
162.62954654582521
 30
0.0
 11
123.282047595064
 21
164.60089715974061
 31
0.0
 70
     3
 15
131.08644732221271
 25
162.62954654582521
 35
0.0
 40
0.0
1001
ACAD
1000
DSTYLE
1002
{
1070
   288
1070
     1
1002
}
1001
ACAD_DSTYLE_DIMRADIAL_EXTENSION
1070
   387
1070
     1
1070
   388
1040
0.0
1070
   390
1040
0.0
  0
DIMENSION
  5
CB4
  8
ANNOTATION
  2
*D41
 10
24.876701359652088
 20
-19.999999999999979
 30
0.0
 11
10.072301632503381
 21
-18.02864938608456
 31
0.0
 70
     3
 15
17.876701359652088
 25
-19.999999999999979
 35
0.0
 40
0.0
1001
ACAD
1000
DSTYLE
1002
{
1070
   288
1070
     1
1002
}
1001
ACAD_DSTYLE_DIMRADIAL_EXTENSION
1070
   387
1070
     1
1070
   388
1040
0.0
1070
   390
1040
0.0
  0
DIMENSION
  5
CCA
  8
ANNOTATION
  2
*D42
 10
82.363152492077859
 20
-19.999999999999979
 30
0.0
 11
67.558752764929153
 21
-18.02864938608457
 31
0.0
 70
     3
 15
75.363152492077859
 25
-19.999999999999979
 35
0.0
 40
0.0
1001
ACAD
1000
DSTYLE
1002
{
1070
   288
1070
     1
1002
}
1001
ACAD_DSTYLE_DIMRADIAL_EXTENSION
1070
   387
1070
     1
1070
   388
1040
0.0
1070
   390
1040
0.0
  0
DIMENSION
  5
CE0
  8
ANNOTATION
  2
*D43
 10
107.8631525220778
 20
-19.999999999999979
 30
0.0
 11
93.058752794929163
 21
-18.028649386084581
 31
0.0
 70
     3
 15
100.8631525220778
 25
-20.0
 35
0.0
 40
0.0
1001
ACAD
1000
DSTYLE
1002
{
1070
   288
1070
     1
1002
}
1001
ACAD_DSTYLE_DIMRADIAL_EXTENSION
1070
   387
1070
     1
1070
   388
1040
0.0
1070
   390
1040
0.0
  0
DIMENSION
  5
CF6
  8
ANNOTATION
  2
*D44
 10
133.36315255207791
 20
-19.999999999999989
 30
0.0
 11
118.5587528249292
 21
-18.028649386084581
 31
0.0
 70
     3
 15
126.36315255207791
 25
-20.0
 35
0.0
 40
0.0
1001
ACAD
1000
DSTYLE
1002
{
1070
   288
1070
     1
1002
}
1001
ACAD_DSTYLE_DIMRADIAL_EXTENSION
1070
   387
1070
     1
1070
   388
1040
0.0
1070
   390
1040
0.0
  0
DIMENSION
  5
D0C
  8
ANNOTATION
  2
*D45
 10
158.8631525820779
 20
-19.999999999999989
 30
0.0
 11
144.05875285492911
 21
-18.028649386084581
 31
0.0
 70
     3
 15
151.86315258207779
 25
-20.0
 35
0.0
 40
0.0
1001
ACAD
1000
DSTYLE
1002
{
1070
   288
1070
     1
1002
}
1001
ACAD_DSTYLE_DIMRADIAL_EXTENSION
1070
   387
1070
     1
1070
   388
1040
0.0
1070
   390
1040
0.0
  0
VIEWPORT
  5
62C
 67
     1
  8
0
 10
128.5
 20
97.5
 30
0.0
 40
341.00761194029849
 41
222.18000000000001
 68
     1
 69
     1
1001
ACAD
1000
MVIEW
1002
{
1070
    16
1010
0.0
1020
0.0
1030
0.0
1010
0.0
1020
0.0
1030
1.0
1040
0.0
1040
222.18000000000001
1040
128.5
1040
97.5
1040
50.0
1040
0.0
1040
0.0
1070
     0
1070
  1000
1070
     1
1070
     1
1070
     0
1070
     0
1070
     0
1070
     0
1040
0.0
1040
0.0
1040
0.0
1040
10.0
1040
10.0
1040
10.0
1040
10.0
1070
     0
1002
{
1002
}
1002
}
  0
VIEWPORT
  5
630
 67
     1
  8
ANNOTATION
 10
128.5
 20
97.5
 30
0.0
 40
205.59999999999999
 41
156.0
 68
     2
 69
     2
1001
ACAD
1000
MVIEW
1002
{
1070
    16
1010
2630.0487816683822
1020
1926.7337563674289
1030
0.0
1010
0.0
1020
0.0
1030
6658.2028318519579
1040
0.0
1040
232.49549153789431
1040
-2530.0477116276361
1040
-1851.7323892181321
1040
50.0
1040
0.0
1040
0.0
1070
     0
1070
  1000
1070
     1
1070
     3
1070
     0
1070
     1
1070
     0
1070
     0
1040
0.0
1040
0.0
1040
0.0
1040
10.0
1040
10.0
1040
10.0
1040
10.0
1070
     0
1002
{
1002
}
1002
}
  0
ENDSEC
  0
EOF
